<svg class="animated" id="freepik_stories-medicine" xmlns="http://www.w3.org/2000/svg" viewBox="0 0 500 500" version="1.1" xmlns:xlink="http://www.w3.org/1999/xlink" xmlns:svgjs="http://svgjs.com/svgjs"><style>svg#freepik_stories-medicine:not(.animated) .animable {opacity: 0;}svg#freepik_stories-medicine.animated #eln1aa21zh7t {animation: 1s 1 forwards cubic-bezier(.36,-0.01,.5,1.38) slideUp;animation-delay: 0s;}svg#freepik_stories-medicine.animated #elsisfnbr7yn9 {animation: 1s 1 forwards cubic-bezier(.36,-0.01,.5,1.38) slideUp;animation-delay: 0.025s;opacity: 0}svg#freepik_stories-medicine.animated #elgdbu27t5g4f {animation: 1s 1 forwards cubic-bezier(.36,-0.01,.5,1.38) slideUp;animation-delay: 0.05s;opacity: 0}svg#freepik_stories-medicine.animated #elx5vvei3fga {animation: 1s 1 forwards cubic-bezier(.36,-0.01,.5,1.38) slideUp;animation-delay: 0.07500000000000001s;opacity: 0}svg#freepik_stories-medicine.animated #el7yimjhduw8m {animation: 1s 1 forwards cubic-bezier(.36,-0.01,.5,1.38) slideUp;animation-delay: 0.1s;opacity: 0}svg#freepik_stories-medicine.animated #el0t3iatgfq6dh {animation: 1s 1 forwards cubic-bezier(.36,-0.01,.5,1.38) slideUp;animation-delay: 0.125s;opacity: 0}svg#freepik_stories-medicine.animated #elkvesago76 {animation: 1s 1 forwards cubic-bezier(.36,-0.01,.5,1.38) slideUp;animation-delay: 0.15000000000000002s;opacity: 0}svg#freepik_stories-medicine.animated #elpunjlcnkryh {animation: 1s 1 forwards cubic-bezier(.36,-0.01,.5,1.38) slideUp;animation-delay: 0.17500000000000002s;opacity: 0}svg#freepik_stories-medicine.animated #ell2i7o749e8 {animation: 1s 1 forwards cubic-bezier(.36,-0.01,.5,1.38) slideUp;animation-delay: 0.2s;opacity: 0}svg#freepik_stories-medicine.animated #eloh870w9h779 {animation: 1s 1 forwards cubic-bezier(.36,-0.01,.5,1.38) slideUp;animation-delay: 0.225s;opacity: 0}svg#freepik_stories-medicine.animated #ela5gwia2txms {animation: 1s 1 forwards cubic-bezier(.36,-0.01,.5,1.38) slideUp;animation-delay: 0.25s;opacity: 0}svg#freepik_stories-medicine.animated #eleku8h30tw0p {animation: 1s 1 forwards cubic-bezier(.36,-0.01,.5,1.38) slideUp;animation-delay: 0.275s;opacity: 0}svg#freepik_stories-medicine.animated #elrxlpwfvvg4k {animation: 1s 1 forwards cubic-bezier(.36,-0.01,.5,1.38) slideUp;animation-delay: 0.30000000000000004s;opacity: 0}svg#freepik_stories-medicine.animated #elk7l5ddtkbi8 {animation: 1s 1 forwards cubic-bezier(.36,-0.01,.5,1.38) slideUp;animation-delay: 0.325s;opacity: 0}svg#freepik_stories-medicine.animated #el7o74mjhuemh {animation: 1s 1 forwards cubic-bezier(.36,-0.01,.5,1.38) slideUp;animation-delay: 0.35000000000000003s;opacity: 0}svg#freepik_stories-medicine.animated #elrcyefmq2pri {animation: 1s 1 forwards cubic-bezier(.36,-0.01,.5,1.38) slideUp;animation-delay: 0.375s;opacity: 0}svg#freepik_stories-medicine.animated #elb5hvmigfshu {animation: 1s 1 forwards cubic-bezier(.36,-0.01,.5,1.38) slideUp;animation-delay: 0.4s;opacity: 0}svg#freepik_stories-medicine.animated #elulpoo6n72k {animation: 1s 1 forwards cubic-bezier(.36,-0.01,.5,1.38) slideUp;animation-delay: 0.42500000000000004s;opacity: 0}svg#freepik_stories-medicine.animated #elvtmda0rbfk {animation: 1s 1 forwards cubic-bezier(.36,-0.01,.5,1.38) slideUp;animation-delay: 0.45s;opacity: 0}svg#freepik_stories-medicine.animated #elwopvt4c9v7 {animation: 1s 1 forwards cubic-bezier(.36,-0.01,.5,1.38) slideUp;animation-delay: 0.47500000000000003s;opacity: 0}svg#freepik_stories-medicine.animated #elhywt3mo99lt {animation: 1s 1 forwards cubic-bezier(.36,-0.01,.5,1.38) slideUp;animation-delay: 0.5s;opacity: 0}svg#freepik_stories-medicine.animated #el9ysam05knn {animation: 1s 1 forwards cubic-bezier(.36,-0.01,.5,1.38) slideUp;animation-delay: 0.525s;opacity: 0}svg#freepik_stories-medicine.animated #elouqa5r7wi6l {animation: 1s 1 forwards cubic-bezier(.36,-0.01,.5,1.38) slideUp;animation-delay: 0.55s;opacity: 0}svg#freepik_stories-medicine.animated #elopqqmrgs7ct {animation: 1s 1 forwards cubic-bezier(.36,-0.01,.5,1.38) slideUp;animation-delay: 0.5750000000000001s;opacity: 0}svg#freepik_stories-medicine.animated #elknoysdypioc {animation: 1s 1 forwards cubic-bezier(.36,-0.01,.5,1.38) slideUp;animation-delay: 0.6000000000000001s;opacity: 0}svg#freepik_stories-medicine.animated #el31qj8jqtfat {animation: 1s 1 forwards cubic-bezier(.36,-0.01,.5,1.38) slideUp;animation-delay: 0.625s;opacity: 0}svg#freepik_stories-medicine.animated #ela7xrdy9qmql {animation: 1s 1 forwards cubic-bezier(.36,-0.01,.5,1.38) slideUp;animation-delay: 0.65s;opacity: 0}svg#freepik_stories-medicine.animated #el0krf0mk9kap {animation: 1s 1 forwards cubic-bezier(.36,-0.01,.5,1.38) slideUp;animation-delay: 0.675s;opacity: 0}svg#freepik_stories-medicine.animated #eljtnwqegkhtb {animation: 1s 1 forwards cubic-bezier(.36,-0.01,.5,1.38) slideUp;animation-delay: 0.7000000000000001s;opacity: 0}svg#freepik_stories-medicine.animated #eldmvfay93eel {animation: 1s 1 forwards cubic-bezier(.36,-0.01,.5,1.38) slideUp;animation-delay: 0.7250000000000001s;opacity: 0}svg#freepik_stories-medicine.animated #eliafmqkco5c {animation: 1s 1 forwards cubic-bezier(.36,-0.01,.5,1.38) slideUp;animation-delay: 0.75s;opacity: 0}svg#freepik_stories-medicine.animated #elywiji61denk {animation: 1s 1 forwards cubic-bezier(.36,-0.01,.5,1.38) slideUp;animation-delay: 0.775s;opacity: 0}svg#freepik_stories-medicine.animated #ellkb2q89pj3 {animation: 1s 1 forwards cubic-bezier(.36,-0.01,.5,1.38) slideUp;animation-delay: 0.8s;opacity: 0}svg#freepik_stories-medicine.animated #el1stk8in96uj {animation: 1s 1 forwards cubic-bezier(.36,-0.01,.5,1.38) slideUp;animation-delay: 0.8250000000000001s;opacity: 0}svg#freepik_stories-medicine.animated #elrl8ap39xn4r {animation: 1s 1 forwards cubic-bezier(.36,-0.01,.5,1.38) slideUp;animation-delay: 0.8500000000000001s;opacity: 0}svg#freepik_stories-medicine.animated #el42b7u08zrz2 {animation: 1s 1 forwards cubic-bezier(.36,-0.01,.5,1.38) slideUp;animation-delay: 0.875s;opacity: 0}svg#freepik_stories-medicine.animated #elcdt4yaxx92p {animation: 1s 1 forwards cubic-bezier(.36,-0.01,.5,1.38) slideUp;animation-delay: 0.9s;opacity: 0}svg#freepik_stories-medicine.animated #elxqltyi0ke3b {animation: 1s 1 forwards cubic-bezier(.36,-0.01,.5,1.38) slideUp;animation-delay: 0.925s;opacity: 0}svg#freepik_stories-medicine.animated #elnkassoyyl {animation: 1s 1 forwards cubic-bezier(.36,-0.01,.5,1.38) slideUp;animation-delay: 0.9500000000000001s;opacity: 0}svg#freepik_stories-medicine.animated #elrlelljwticd {animation: 1s 1 forwards cubic-bezier(.36,-0.01,.5,1.38) slideUp;animation-delay: 0.9750000000000001s;opacity: 0}svg#freepik_stories-medicine.animated #freepik--background-complete--inject-2 {animation: 1s 1 forwards cubic-bezier(.36,-0.01,.5,1.38) slideUp;animation-delay: 0s;}svg#freepik_stories-medicine.animated #elltpgonne1ts {animation: 1s 1 forwards cubic-bezier(.36,-0.01,.5,1.38) slideUp;animation-delay: 0s;}svg#freepik_stories-medicine.animated #freepik--Shadow--inject-2 {animation: 1s 1 forwards cubic-bezier(.36,-0.01,.5,1.38) slideUp;animation-delay: 0s;}svg#freepik_stories-medicine.animated #el8jqkph1mxni {animation: 1s 1 forwards cubic-bezier(.36,-0.01,.5,1.38) slideRight;animation-delay: 0s;}svg#freepik_stories-medicine.animated #elt77n2gjyx3 {animation: 1s 1 forwards cubic-bezier(.36,-0.01,.5,1.38) slideRight;animation-delay: 0.06666666666666667s;opacity: 0}svg#freepik_stories-medicine.animated #el57c0eccu4o3 {animation: 1s 1 forwards cubic-bezier(.36,-0.01,.5,1.38) slideRight;animation-delay: 0.13333333333333333s;opacity: 0}svg#freepik_stories-medicine.animated #el46emuh28nui {animation: 1s 1 forwards cubic-bezier(.36,-0.01,.5,1.38) slideRight;animation-delay: 0.2s;opacity: 0}svg#freepik_stories-medicine.animated #elx57wq7gg5bp {animation: 1s 1 forwards cubic-bezier(.36,-0.01,.5,1.38) slideRight;animation-delay: 0.26666666666666666s;opacity: 0}svg#freepik_stories-medicine.animated #eli7divhf8hwm {animation: 1s 1 forwards cubic-bezier(.36,-0.01,.5,1.38) slideRight;animation-delay: 0.3333333333333333s;opacity: 0}svg#freepik_stories-medicine.animated #eli578sbwgrv8 {animation: 1s 1 forwards cubic-bezier(.36,-0.01,.5,1.38) slideRight;animation-delay: 0.4s;opacity: 0}svg#freepik_stories-medicine.animated #ellbi7041mf3o {animation: 1s 1 forwards cubic-bezier(.36,-0.01,.5,1.38) slideRight;animation-delay: 0.4666666666666667s;opacity: 0}svg#freepik_stories-medicine.animated #elfs50y20uno8 {animation: 1s 1 forwards cubic-bezier(.36,-0.01,.5,1.38) slideRight;animation-delay: 0.5333333333333333s;opacity: 0}svg#freepik_stories-medicine.animated #elnw79ucekfj8 {animation: 1s 1 forwards cubic-bezier(.36,-0.01,.5,1.38) slideRight;animation-delay: 0.6s;opacity: 0}svg#freepik_stories-medicine.animated #elxln90lpok {animation: 1s 1 forwards cubic-bezier(.36,-0.01,.5,1.38) slideRight;animation-delay: 0.6666666666666666s;opacity: 0}svg#freepik_stories-medicine.animated #elc7g4yuh5btq {animation: 1s 1 forwards cubic-bezier(.36,-0.01,.5,1.38) slideRight;animation-delay: 0.7333333333333333s;opacity: 0}svg#freepik_stories-medicine.animated #el6zdr5r45twa {animation: 1s 1 forwards cubic-bezier(.36,-0.01,.5,1.38) slideRight;animation-delay: 0.8s;opacity: 0}svg#freepik_stories-medicine.animated #eltw2ro7u53zi {animation: 1s 1 forwards cubic-bezier(.36,-0.01,.5,1.38) slideRight;animation-delay: 0.8666666666666667s;opacity: 0}svg#freepik_stories-medicine.animated #elafp2aw8efiq {animation: 1s 1 forwards cubic-bezier(.36,-0.01,.5,1.38) slideRight;animation-delay: 0.9333333333333333s;opacity: 0}svg#freepik_stories-medicine.animated #freepik--Box--inject-2 {animation: 1s 1 forwards cubic-bezier(.36,-0.01,.5,1.38) slideRight;animation-delay: 0s;}svg#freepik_stories-medicine.animated #el9m52qgqxaf {animation: 1s 1 forwards cubic-bezier(.36,-0.01,.5,1.38) slideDown;animation-delay: 0s;}svg#freepik_stories-medicine.animated #elao4u8ikgrss {animation: 1s 1 forwards cubic-bezier(.36,-0.01,.5,1.38) slideDown;animation-delay: 0.023809523809523808s;opacity: 0}svg#freepik_stories-medicine.animated #elwq9uu5o7a1 {animation: 1s 1 forwards cubic-bezier(.36,-0.01,.5,1.38) slideDown;animation-delay: 0.047619047619047616s;opacity: 0}svg#freepik_stories-medicine.animated #eld5o3rwubebs {animation: 1s 1 forwards cubic-bezier(.36,-0.01,.5,1.38) slideDown;animation-delay: 0.07142857142857142s;opacity: 0}svg#freepik_stories-medicine.animated #el56kgtr7xcs9 {animation: 1s 1 forwards cubic-bezier(.36,-0.01,.5,1.38) slideDown;animation-delay: 0.09523809523809523s;opacity: 0}svg#freepik_stories-medicine.animated #eloeyg5uo9ap {animation: 1s 1 forwards cubic-bezier(.36,-0.01,.5,1.38) slideDown;animation-delay: 0.11904761904761904s;opacity: 0}svg#freepik_stories-medicine.animated #elqmxr5anc41 {animation: 1s 1 forwards cubic-bezier(.36,-0.01,.5,1.38) slideDown;animation-delay: 0.14285714285714285s;opacity: 0}svg#freepik_stories-medicine.animated #elymy3vmudgc {animation: 1s 1 forwards cubic-bezier(.36,-0.01,.5,1.38) slideDown;animation-delay: 0.16666666666666666s;opacity: 0}svg#freepik_stories-medicine.animated #el6ytrxqaqkdl {animation: 1s 1 forwards cubic-bezier(.36,-0.01,.5,1.38) slideDown;animation-delay: 0.19047619047619047s;opacity: 0}svg#freepik_stories-medicine.animated #elzbc8susdxap {animation: 1s 1 forwards cubic-bezier(.36,-0.01,.5,1.38) slideDown;animation-delay: 0.21428571428571427s;opacity: 0}svg#freepik_stories-medicine.animated #elytp1erfpaga {animation: 1s 1 forwards cubic-bezier(.36,-0.01,.5,1.38) slideDown;animation-delay: 0.23809523809523808s;opacity: 0}svg#freepik_stories-medicine.animated #el7tiac1d41d {animation: 1s 1 forwards cubic-bezier(.36,-0.01,.5,1.38) slideDown;animation-delay: 0.26190476190476186s;opacity: 0}svg#freepik_stories-medicine.animated #elipw5wijejh {animation: 1s 1 forwards cubic-bezier(.36,-0.01,.5,1.38) slideDown;animation-delay: 0.2857142857142857s;opacity: 0}svg#freepik_stories-medicine.animated #elz7e68q0n4a {animation: 1s 1 forwards cubic-bezier(.36,-0.01,.5,1.38) slideDown;animation-delay: 0.30952380952380953s;opacity: 0}svg#freepik_stories-medicine.animated #ella478hmr4u {animation: 1s 1 forwards cubic-bezier(.36,-0.01,.5,1.38) slideDown;animation-delay: 0.3333333333333333s;opacity: 0}svg#freepik_stories-medicine.animated #elzsw8xie6s2 {animation: 1s 1 forwards cubic-bezier(.36,-0.01,.5,1.38) slideDown;animation-delay: 0.3571428571428571s;opacity: 0}svg#freepik_stories-medicine.animated #ely0yk2sn19wl {animation: 1s 1 forwards cubic-bezier(.36,-0.01,.5,1.38) slideDown;animation-delay: 0.38095238095238093s;opacity: 0}svg#freepik_stories-medicine.animated #elswchgfydqqm {animation: 1s 1 forwards cubic-bezier(.36,-0.01,.5,1.38) slideDown;animation-delay: 0.40476190476190477s;opacity: 0}svg#freepik_stories-medicine.animated #el842mxpf0g0s {animation: 1s 1 forwards cubic-bezier(.36,-0.01,.5,1.38) slideDown;animation-delay: 0.42857142857142855s;opacity: 0}svg#freepik_stories-medicine.animated #elyius48oih3 {animation: 1s 1 forwards cubic-bezier(.36,-0.01,.5,1.38) slideDown;animation-delay: 0.45238095238095233s;opacity: 0}svg#freepik_stories-medicine.animated #elsf065r7q7n {animation: 1s 1 forwards cubic-bezier(.36,-0.01,.5,1.38) slideDown;animation-delay: 0.47619047619047616s;opacity: 0}svg#freepik_stories-medicine.animated #eluchgp4ntpzs {animation: 1s 1 forwards cubic-bezier(.36,-0.01,.5,1.38) slideDown;animation-delay: 0.5s;opacity: 0}svg#freepik_stories-medicine.animated #elljgjtcqap3f {animation: 1s 1 forwards cubic-bezier(.36,-0.01,.5,1.38) slideDown;animation-delay: 0.5238095238095237s;opacity: 0}svg#freepik_stories-medicine.animated #elkp7ya7vjw6s {animation: 1s 1 forwards cubic-bezier(.36,-0.01,.5,1.38) slideDown;animation-delay: 0.5476190476190476s;opacity: 0}svg#freepik_stories-medicine.animated #eli46i7whocl {animation: 1s 1 forwards cubic-bezier(.36,-0.01,.5,1.38) slideDown;animation-delay: 0.5714285714285714s;opacity: 0}svg#freepik_stories-medicine.animated #eltnmfixev8u {animation: 1s 1 forwards cubic-bezier(.36,-0.01,.5,1.38) slideDown;animation-delay: 0.5952380952380952s;opacity: 0}svg#freepik_stories-medicine.animated #elj5tkpaa9j8n {animation: 1s 1 forwards cubic-bezier(.36,-0.01,.5,1.38) slideDown;animation-delay: 0.6190476190476191s;opacity: 0}svg#freepik_stories-medicine.animated #el8k25s31m77c {animation: 1s 1 forwards cubic-bezier(.36,-0.01,.5,1.38) slideDown;animation-delay: 0.6428571428571428s;opacity: 0}svg#freepik_stories-medicine.animated #elkzrgcgjcek {animation: 1s 1 forwards cubic-bezier(.36,-0.01,.5,1.38) slideDown;animation-delay: 0.6666666666666666s;opacity: 0}svg#freepik_stories-medicine.animated #elx4n2d9f4sf {animation: 1s 1 forwards cubic-bezier(.36,-0.01,.5,1.38) slideDown;animation-delay: 0.6904761904761905s;opacity: 0}svg#freepik_stories-medicine.animated #elh5n0fa952h {animation: 1s 1 forwards cubic-bezier(.36,-0.01,.5,1.38) slideDown;animation-delay: 0.7142857142857142s;opacity: 0}svg#freepik_stories-medicine.animated #elqxzehksj27 {animation: 1s 1 forwards cubic-bezier(.36,-0.01,.5,1.38) slideDown;animation-delay: 0.738095238095238s;opacity: 0}svg#freepik_stories-medicine.animated #elth25sp7ydl {animation: 1s 1 forwards cubic-bezier(.36,-0.01,.5,1.38) slideDown;animation-delay: 0.7619047619047619s;opacity: 0}svg#freepik_stories-medicine.animated #el2xqdnclk0tm {animation: 1s 1 forwards cubic-bezier(.36,-0.01,.5,1.38) slideDown;animation-delay: 0.7857142857142857s;opacity: 0}svg#freepik_stories-medicine.animated #els0dg64i8bu {animation: 1s 1 forwards cubic-bezier(.36,-0.01,.5,1.38) slideDown;animation-delay: 0.8095238095238095s;opacity: 0}svg#freepik_stories-medicine.animated #el11bw4s8ppfu {animation: 1s 1 forwards cubic-bezier(.36,-0.01,.5,1.38) slideDown;animation-delay: 0.8333333333333333s;opacity: 0}svg#freepik_stories-medicine.animated #eliol2l9kzbu9 {animation: 1s 1 forwards cubic-bezier(.36,-0.01,.5,1.38) slideDown;animation-delay: 0.8571428571428571s;opacity: 0}svg#freepik_stories-medicine.animated #elwmfckju2huc {animation: 1s 1 forwards cubic-bezier(.36,-0.01,.5,1.38) slideDown;animation-delay: 0.8809523809523809s;opacity: 0}svg#freepik_stories-medicine.animated #el23fa4w2qlh {animation: 1s 1 forwards cubic-bezier(.36,-0.01,.5,1.38) slideDown;animation-delay: 0.9047619047619047s;opacity: 0}svg#freepik_stories-medicine.animated #elfc7jhejhcgs {animation: 1s 1 forwards cubic-bezier(.36,-0.01,.5,1.38) slideDown;animation-delay: 0.9285714285714285s;opacity: 0}svg#freepik_stories-medicine.animated #el4mvvsktjkvg {animation: 1s 1 forwards cubic-bezier(.36,-0.01,.5,1.38) slideDown;animation-delay: 0.9523809523809523s;opacity: 0}svg#freepik_stories-medicine.animated #elh3gxhosypes {animation: 1s 1 forwards cubic-bezier(.36,-0.01,.5,1.38) slideDown;animation-delay: 0.9761904761904762s;opacity: 0}svg#freepik_stories-medicine.animated #freepik--Character--inject-2 {animation: 1s 1 forwards cubic-bezier(.36,-0.01,.5,1.38) slideDown;animation-delay: 0s;}            @keyframes slideUp {                0% {                    opacity: 0;                    transform: translateY(30px);                }                100% {                    opacity: 1;                    transform: inherit;                }            }                    @keyframes slideRight {                0% {                    opacity: 0;                    transform: translateX(30px);                }                100% {                    opacity: 1;                    transform: translateX(0);                }            }                    @keyframes slideDown {                0% {                    opacity: 0;                    transform: translateY(-30px);                }                100% {                    opacity: 1;                    transform: translateY(0);                }            }        </style><g id="freepik--background-complete--inject-2" class="animable" style="transform-origin: 250px 224.695px;"><rect y="382.4" width="500" height="0.25" style="fill: rgb(235, 235, 235); transform-origin: 250px 382.525px;" id="eln1aa21zh7t" class="animable"></rect><rect x="150.04" y="388.78" width="23.18" height="0.25" style="fill: rgb(235, 235, 235); transform-origin: 161.63px 388.905px;" id="elsisfnbr7yn9" class="animable"></rect><rect x="402.1" y="394.14" width="56.67" height="0.25" style="fill: rgb(235, 235, 235); transform-origin: 430.435px 394.265px;" id="elgdbu27t5g4f" class="animable"></rect><rect x="42.72" y="394.14" width="56.67" height="0.25" style="fill: rgb(235, 235, 235); transform-origin: 71.055px 394.265px;" id="elx5vvei3fga" class="animable"></rect><path d="M237,337.8H43.91a5.71,5.71,0,0,1-5.7-5.71V60.66A5.71,5.71,0,0,1,43.91,55H237a5.71,5.71,0,0,1,5.71,5.71h0V332.09A5.71,5.71,0,0,1,237,337.8ZM43.91,55.2a5.46,5.46,0,0,0-5.45,5.46V332.09a5.46,5.46,0,0,0,5.45,5.46H237a5.48,5.48,0,0,0,5.46-5.46V60.66A5.48,5.48,0,0,0,237,55.2Z" style="fill: rgb(235, 235, 235); transform-origin: 140.46px 196.4px;" id="el7yimjhduw8m" class="animable"></path><path d="M453.31,337.8H260.21a5.73,5.73,0,0,1-5.71-5.71V60.66A5.72,5.72,0,0,1,260.21,55h193.1A5.71,5.71,0,0,1,459,60.66V332.09A5.7,5.7,0,0,1,453.31,337.8ZM260.21,55.2a5.48,5.48,0,0,0-5.46,5.46V332.09a5.48,5.48,0,0,0,5.46,5.46h193.1a5.48,5.48,0,0,0,5.46-5.46V60.66a5.48,5.48,0,0,0-5.46-5.46Z" style="fill: rgb(235, 235, 235); transform-origin: 356.75px 196.4px;" id="el0t3iatgfq6dh" class="animable"></path><rect x="73.39" y="241.63" width="140.77" height="140.77" style="fill: rgb(224, 224, 224); transform-origin: 143.775px 312.015px;" id="elkvesago76" class="animable"></rect><rect x="59.9" y="241.63" width="129.28" height="140.77" style="fill: rgb(235, 235, 235); transform-origin: 124.54px 312.015px;" id="elpunjlcnkryh" class="animable"></rect><rect x="65.11" y="249.25" width="118.7" height="38.44" style="fill: rgb(245, 245, 245); transform-origin: 124.46px 268.47px;" id="ell2i7o749e8" class="animable"></rect><rect x="65.11" y="293.74" width="118.7" height="38.44" style="fill: rgb(245, 245, 245); transform-origin: 124.46px 312.96px;" id="eloh870w9h779" class="animable"></rect><rect x="65.11" y="336.35" width="118.7" height="38.44" style="fill: rgb(245, 245, 245); transform-origin: 124.46px 355.57px;" id="ela5gwia2txms" class="animable"></rect><path d="M125.72,266.34a4.2,4.2,0,1,1-4.2-4.2A4.2,4.2,0,0,1,125.72,266.34Z" style="fill: rgb(250, 250, 250); transform-origin: 121.52px 266.34px;" id="eleku8h30tw0p" class="animable"></path><path d="M124.54,351.68a3,3,0,1,1-3-3A3,3,0,0,1,124.54,351.68Z" style="fill: rgb(250, 250, 250); transform-origin: 121.54px 351.68px;" id="elrxlpwfvvg4k" class="animable"></path><path d="M124.54,312.38a3,3,0,1,1-3-3A3,3,0,0,1,124.54,312.38Z" style="fill: rgb(250, 250, 250); transform-origin: 121.54px 312.38px;" id="elk7l5ddtkbi8" class="animable"></path><rect x="68.1" y="68.69" width="163.66" height="107.87" style="fill: rgb(224, 224, 224); transform-origin: 149.93px 122.625px;" id="el7o74mjhuemh" class="animable"></rect><rect x="64.94" y="68.69" width="163.66" height="107.87" style="fill: rgb(240, 240, 240); transform-origin: 146.77px 122.625px;" id="elrcyefmq2pri" class="animable"></rect><rect x="69.64" y="73.83" width="152.94" height="98.44" style="fill: rgb(250, 250, 250); transform-origin: 146.11px 123.05px;" id="elb5hvmigfshu" class="animable"></rect><polygon points="217.42 75.23 173.91 172.27 156.03 172.27 197.88 75.23 217.42 75.23" style="fill: rgb(255, 255, 255); transform-origin: 186.725px 123.75px;" id="elulpoo6n72k" class="animable"></polygon><polygon points="181.77 75.23 137.58 172.27 116.62 172.27 162.82 75.23 181.77 75.23" style="fill: rgb(255, 255, 255); transform-origin: 149.195px 123.75px;" id="elvtmda0rbfk" class="animable"></polygon><rect x="64.94" y="68.69" width="166.6" height="6.54" style="fill: rgb(224, 224, 224); transform-origin: 148.24px 71.96px;" id="elwopvt4c9v7" class="animable"></rect><rect x="64.94" y="76.92" width="166.6" height="6.54" style="fill: rgb(224, 224, 224); transform-origin: 148.24px 80.19px;" id="elhywt3mo99lt" class="animable"></rect><rect x="64.94" y="85.15" width="166.6" height="6.54" style="fill: rgb(224, 224, 224); transform-origin: 148.24px 88.42px;" id="el9ysam05knn" class="animable"></rect><rect x="64.94" y="93.37" width="166.6" height="6.54" style="fill: rgb(224, 224, 224); transform-origin: 148.24px 96.64px;" id="elouqa5r7wi6l" class="animable"></rect><rect x="64.94" y="101.6" width="166.6" height="6.54" style="fill: rgb(224, 224, 224); transform-origin: 148.24px 104.87px;" id="elopqqmrgs7ct" class="animable"></rect><rect x="61.37" y="176.56" width="175.14" height="8.14" style="fill: rgb(224, 224, 224); transform-origin: 148.94px 180.63px;" id="elknoysdypioc" class="animable"></rect><polygon points="439.17 298.58 439.17 382.4 409.55 382.4 407.97 374.01 292.88 374.01 292.88 298.58 439.17 298.58" style="fill: rgb(224, 224, 224); transform-origin: 366.025px 340.49px;" id="el31qj8jqtfat" class="animable"></polygon><polygon points="418.88 298.58 418.88 382.4 409.55 382.4 407.97 374.01 290.59 374.01 288.73 382.4 272.59 382.4 272.59 298.58 418.88 298.58" style="fill: rgb(235, 235, 235); transform-origin: 345.735px 340.49px;" id="ela7xrdy9qmql" class="animable"></polygon><rect x="280.02" y="304.46" width="130.61" height="28.88" style="fill: none; stroke: rgb(250, 250, 250); stroke-miterlimit: 10; transform-origin: 345.325px 318.9px;" id="el0krf0mk9kap" class="animable"></rect><rect x="280.02" y="339.09" width="130.61" height="29.17" style="fill: none; stroke: rgb(250, 250, 250); stroke-miterlimit: 10; transform-origin: 345.325px 353.675px;" id="eljtnwqegkhtb" class="animable"></rect><rect x="377.81" y="64.43" width="58.73" height="79.43" style="fill: rgb(224, 224, 224); transform-origin: 407.175px 104.145px;" id="eldmvfay93eel" class="animable"></rect><rect x="374.87" y="64.38" width="58.73" height="79.43" style="fill: rgb(230, 230, 230); transform-origin: 404.235px 104.095px;" id="eliafmqkco5c" class="animable"></rect><rect x="377.81" y="67.36" width="52.74" height="73.59" style="fill: rgb(250, 250, 250); transform-origin: 404.18px 104.155px;" id="elywiji61denk" class="animable"></rect><rect x="384.86" y="124.98" width="40.31" height="1.72" style="fill: rgb(224, 224, 224); transform-origin: 405.015px 125.84px;" id="ellkb2q89pj3" class="animable"></rect><rect x="384.86" y="129.37" width="40.31" height="1.72" style="fill: rgb(224, 224, 224); transform-origin: 405.015px 130.23px;" id="el1stk8in96uj" class="animable"></rect><rect x="384.86" y="133.76" width="40.31" height="1.72" style="fill: rgb(224, 224, 224); transform-origin: 405.015px 134.62px;" id="elrl8ap39xn4r" class="animable"></rect><path d="M419.41,94.58A14.39,14.39,0,1,1,405,80.19,14.39,14.39,0,0,1,419.41,94.58Z" style="fill: none; stroke: rgb(224, 224, 224); stroke-miterlimit: 10; transform-origin: 405.02px 94.58px;" id="el42b7u08zrz2" class="animable"></path><rect x="363.4" y="164.37" width="50.15" height="50.15" style="fill: rgb(224, 224, 224); transform-origin: 388.475px 189.445px;" id="elcdt4yaxx92p" class="animable"></rect><rect x="359.11" y="164.37" width="50.15" height="50.15" style="fill: rgb(235, 235, 235); transform-origin: 384.185px 189.445px;" id="elxqltyi0ke3b" class="animable"></rect><rect x="362.58" y="167.84" width="43.22" height="43.22" style="fill: rgb(250, 250, 250); transform-origin: 384.19px 189.45px;" id="elnkassoyyl" class="animable"></rect><rect x="372.73" y="177.98" width="22.92" height="22.92" style="fill: rgb(224, 224, 224); transform-origin: 384.19px 189.44px;" id="elrlelljwticd" class="animable"></rect></g><g id="freepik--Shadow--inject-2" class="animable" style="transform-origin: 248.08px 440.07px;"><ellipse cx="248.08" cy="440.07" rx="167.16" ry="12.64" style="fill: rgb(245, 245, 245); transform-origin: 248.08px 440.07px;" id="elltpgonne1ts" class="animable"></ellipse></g><g id="freepik--Box--inject-2" class="animable" style="transform-origin: 152.215px 379.45px;"><rect x="98.98" y="373.21" width="61.52" height="69.43" style="fill: rgb(64, 123, 255); transform-origin: 129.74px 407.925px;" id="el8jqkph1mxni" class="animable"></rect><rect x="129.74" y="373.21" width="61.52" height="69.43" style="fill: rgb(64, 123, 255); transform-origin: 160.5px 407.925px;" id="elt77n2gjyx3" class="animable"></rect><g id="el57c0eccu4o3"><rect x="98.98" y="373.21" width="61.52" height="69.43" style="fill: rgb(255, 255, 255); opacity: 0.7; transform-origin: 129.74px 407.925px;" class="animable"></rect></g><g id="el46emuh28nui"><rect x="160.43" y="373.21" width="30.82" height="69.43" style="fill: rgb(255, 255, 255); opacity: 0.2; transform-origin: 175.84px 407.925px;" class="animable"></rect></g><g id="elx57wq7gg5bp"><ellipse cx="174.86" cy="408.28" rx="7.83" ry="13.52" style="fill: rgb(255, 255, 255); transform-origin: 174.86px 408.28px; transform: rotate(-1.34deg);" class="animable"></ellipse></g><polygon points="179.6 405.99 176.26 406.07 176.13 400.41 173.55 400.47 173.68 406.13 170.01 406.22 170.11 410.63 173.78 410.54 173.92 416.15 176.5 416.09 176.37 410.48 179.71 410.4 179.6 405.99" style="fill: rgb(64, 123, 255); transform-origin: 174.86px 408.28px;" id="eli7divhf8hwm" class="animable"></polygon><rect x="124.77" y="373.21" width="12.46" height="12.46" style="fill: rgb(245, 245, 245); transform-origin: 131px 379.44px;" id="eli578sbwgrv8" class="animable"></rect><rect x="124.77" y="398.1" width="12.46" height="44.54" style="fill: rgb(245, 245, 245); transform-origin: 131px 420.37px;" id="ellbi7041mf3o" class="animable"></rect><rect x="129.74" y="316.26" width="50.47" height="56.97" style="fill: rgb(64, 123, 255); transform-origin: 154.975px 344.745px;" id="elfs50y20uno8" class="animable"></rect><rect x="154.98" y="316.26" width="50.47" height="56.97" style="fill: rgb(64, 123, 255); transform-origin: 180.215px 344.745px;" id="elnw79ucekfj8" class="animable"></rect><g id="elxln90lpok"><rect x="129.74" y="316.26" width="42.6" height="56.97" style="fill: rgb(255, 255, 255); opacity: 0.7; transform-origin: 151.04px 344.745px;" class="animable"></rect></g><g id="elc7g4yuh5btq"><rect x="172.34" y="316.26" width="33.11" height="56.97" style="fill: rgb(255, 255, 255); opacity: 0.2; transform-origin: 188.895px 344.745px;" class="animable"></rect></g><path d="M195.31,344.89c.15,6.12-2.61,11.16-6.16,11.24s-6.54-4.82-6.68-10.94S185.09,334,188.63,334,195.17,338.76,195.31,344.89Z" style="fill: rgb(255, 255, 255); transform-origin: 188.89px 345.065px;" id="el6zdr5r45twa" class="animable"></path><polygon points="192.79 343.16 190.05 343.22 189.94 338.57 187.82 338.62 187.93 343.27 184.91 343.34 185 346.96 188.01 346.89 188.12 351.5 190.24 351.44 190.13 346.84 192.87 346.78 192.79 343.16" style="fill: rgb(64, 123, 255); transform-origin: 188.89px 345.035px;" id="eltw2ro7u53zi" class="animable"></polygon><rect x="140.67" y="316.26" width="10.23" height="56.97" style="fill: rgb(245, 245, 245); transform-origin: 145.785px 344.745px;" id="elafp2aw8efiq" class="animable"></rect></g><g id="freepik--Character--inject-2" class="animable" style="transform-origin: 245.019px 265.346px;"><path d="M238.39,239.1s-14.73,69.76-16,92.9,4.77,81.29,4.77,81.29l18.82,3,3.59-74.21,8.25-56.57s8.64,46,12.36,56.77,21.47,42,36.13,66.95L318.91,400s-23.55-67.34-27.57-80.49-1.3-68.9-13.7-84.73Z" style="fill: rgb(64, 123, 255); transform-origin: 270.562px 325.535px;" id="el9m52qgqxaf" class="animable"></path><g id="elao4u8ikgrss"><path d="M238.39,239.1s-14.73,69.76-16,92.9,4.77,81.29,4.77,81.29l18.82,3,3.59-74.21,8.25-56.57s8.64,46,12.36,56.77,21.47,42,36.13,66.95L318.91,400s-23.55-67.34-27.57-80.49-1.3-68.9-13.7-84.73Z" style="fill: rgb(255, 255, 255); opacity: 0.4; transform-origin: 270.562px 325.535px;" class="animable"></path></g><path d="M241.89,432.6c-.09.56-9.85-1.56-9.85-1.56l-.66-9.64-.26-3.78,10-.88s.17,2.88.35,6.18C241.67,427.24,242,432.27,241.89,432.6Z" style="fill: rgb(181, 91, 82); transform-origin: 236.516px 424.717px;" id="elwq9uu5o7a1" class="animable"></path><g id="eld5o3rwubebs"><path d="M241.43,422.92l-10.05-1.52-.26-3.78,10-.88S241.25,419.62,241.43,422.92Z" style="opacity: 0.2; transform-origin: 236.275px 419.83px;" class="animable"></path></g><path d="M224.89,434.43l-.4-.55c-.12-.17-3-4.2-2.58-6.18a1.33,1.33,0,0,1,.68-.91.91.91,0,0,1,.94,0c1.43.87,1.38,6.35,1.37,7Zm-1.8-7.32a.64.64,0,0,0-.29.08.92.92,0,0,0-.45.61c-.31,1.36,1.31,4,2.1,5.22,0-1.93-.26-5.31-1.15-5.85A.4.4,0,0,0,223.09,427.11Z" style="fill: rgb(64, 123, 255); transform-origin: 223.385px 430.545px;" id="el56kgtr7xcs9" class="animable"></path><path d="M223.88,434.49l-.58-.24c-.62-.25-6.06-2.52-6.4-4.47a1.15,1.15,0,0,1,.41-1.07,1.41,1.41,0,0,1,1.24-.35c2.2.38,4.92,5.36,5,5.57Zm-5.61-5.71a.92.92,0,0,0-.65.27.68.68,0,0,0-.27.66c.22,1.28,3.62,3,5.5,3.86-.78-1.33-2.8-4.49-4.38-4.77Z" style="fill: rgb(64, 123, 255); transform-origin: 220.383px 431.411px;" id="eloeyg5uo9ap" class="animable"></path><path d="M241.57,432.06l-10.1-1.59a2.55,2.55,0,0,0-1.8.39,21.12,21.12,0,0,1-7.75,3.22c-4.32.61-8.16-.24-8.52,1a3.71,3.71,0,0,0,1.86,4.19c1.42.74,18.82,3.44,26.16,4.56a2.56,2.56,0,0,0,2.93-2.77l-.63-6.7A2.58,2.58,0,0,0,241.57,432.06Z" style="fill: rgb(34, 34, 33); transform-origin: 228.824px 437.149px;" id="elqmxr5anc41" class="animable"></path><polygon points="224.67 410.98 226.25 419.3 246.85 421.26 247.46 412.84 224.67 410.98" style="fill: rgb(64, 123, 255); transform-origin: 236.065px 416.12px;" id="elymy3vmudgc" class="animable"></polygon><path d="M325.24,410.44c.28.5-8.68,4.91-8.68,4.91l-5.94-6.53-3.11-3.43,3.16-3,4.1-3.87s.42.48,1.11,1.24l3.64,4.1C322.22,406.92,325.1,410.19,325.24,410.44Z" style="fill: rgb(181, 91, 82); transform-origin: 316.378px 406.935px;" id="el6ytrxqaqkdl" class="animable"></path><g id="elzbc8susdxap"><path d="M319.52,403.87l-8.9,4.95-3.11-3.43,3.16-3,5.21-2.63Z" style="opacity: 0.2; transform-origin: 313.515px 404.29px;" class="animable"></path></g><path d="M313.65,419.34l-.52-.24c-.19-.08-4.58-2.09-5-3.86a1.11,1.11,0,0,1,.28-1,1.23,1.23,0,0,1,1.15-.46c1.78.29,3.63,4.56,3.84,5.05Zm-4.25-5.14a.8.8,0,0,0-.62.32.67.67,0,0,0-.17.63c.24,1.12,2.72,2.56,4.15,3.28-.69-1.48-2.11-4-3.24-4.22Z" style="fill: rgb(64, 123, 255); transform-origin: 310.877px 416.553px;" id="elytp1erfpaga" class="animable"></path><path d="M307.07,421.44a3.8,3.8,0,0,1-2.55-.65,1.42,1.42,0,0,1-.33-1.48,2,2,0,0,1,1.17-1.4c2.61-1.18,8.44,1.79,8.69,1.92l.5.26-.54.16A30.93,30.93,0,0,1,307.07,421.44Zm-.19-3.36a3.27,3.27,0,0,0-1.34.24,1.56,1.56,0,0,0-.91,1.1,1,1,0,0,0,.2,1c1.2,1.16,6.09.15,8.48-.49C312.09,419.4,309,418.08,306.88,418.08Z" style="fill: rgb(64, 123, 255); transform-origin: 309.328px 419.547px;" id="el7tiac1d41d" class="animable"></path><path d="M324.66,410.08l-8.9,5a2.5,2.5,0,0,0-1.17,1.42,21,21,0,0,1-4.08,7.33c-3,3.17-6.54,4.89-6.05,6.08a3.69,3.69,0,0,0,4.05,2.13c1.57-.3,16.89-9,23.34-12.66a2.56,2.56,0,0,0,.57-4l-4.65-4.87A2.58,2.58,0,0,0,324.66,410.08Z" style="fill: rgb(34, 34, 33); transform-origin: 318.776px 420.923px;" id="elipw5wijejh" class="animable"></path><polygon points="298.9 404.93 305.31 410.49 322.68 399.23 317.93 392.25 298.9 404.93" style="fill: rgb(64, 123, 255); transform-origin: 310.79px 401.37px;" id="elz7e68q0n4a" class="animable"></polygon><path d="M259.28,152c.55-.31,12-.83,23,1.48s-8.6,15.84-8.6,15.84l-6.14,24.58-11.25.1-1.36-34.9Z" style="fill: rgb(235, 235, 235); transform-origin: 270.281px 172.861px;" id="ella478hmr4u" class="animable"></path><path d="M282.27,153.51l-23.86,37.65,2.64-39.48s-8.67.22-11.36,1-5,7.06-6.93,15.66-4.86,29.22-4.86,29.22l-13.71,115s46.87,10,68.95,2.23c0,0-8.3-103.29-6.93-109.67s5.8-29.72,5.8-29.72,6.14-11.65,3.47-15.08S282.27,153.51,282.27,153.51Z" style="fill: rgb(64, 123, 255); transform-origin: 260.171px 234.713px;" id="elzsw8xie6s2" class="animable"></path><line x1="254.14" y1="225.95" x2="257.54" y2="317.21" style="fill: none; stroke: rgb(255, 255, 255); stroke-linecap: round; stroke-linejoin: round; stroke-width: 0.75px; transform-origin: 255.84px 271.58px;" id="ely0yk2sn19wl" class="animable"></line><g id="elswchgfydqqm"><rect x="176.6" y="167.01" width="87.39" height="64.58" style="fill: rgb(64, 123, 255); transform-origin: 220.295px 199.3px; transform: rotate(-18.82deg);" class="animable"></rect></g><polygon points="251.24 154.64 189.35 243.96 177.73 238.69 156.9 177.57 239.62 149.38 251.24 154.64" style="fill: rgb(64, 123, 255); transform-origin: 204.07px 196.67px;" id="el842mxpf0g0s" class="animable"></polygon><g id="elyius48oih3"><polygon points="251.24 154.64 168.52 182.83 189.35 243.96 177.73 238.69 156.9 177.57 239.62 149.38 251.24 154.64" style="fill: rgb(255, 255, 255); opacity: 0.7; transform-origin: 204.07px 196.67px;" class="animable"></polygon></g><g id="elsf065r7q7n"><rect x="176.6" y="167.01" width="87.39" height="64.58" style="fill: rgb(255, 255, 255); opacity: 0.46; transform-origin: 220.295px 199.3px; transform: rotate(-18.82deg);" class="animable"></rect></g><g id="eluchgp4ntpzs"><circle cx="220.29" cy="199.3" r="23.45" style="fill: rgb(250, 250, 250); transform-origin: 220.29px 199.3px; transform: rotate(-39.2894deg);" class="animable"></circle></g><polygon points="232.78 191.24 223.27 194.35 220.21 185.01 212.86 187.42 215.92 196.76 205.46 200.18 207.83 207.45 218.3 204.02 221.33 213.28 228.68 210.87 225.65 201.61 235.16 198.5 232.78 191.24" style="fill: rgb(64, 123, 255); transform-origin: 220.31px 199.145px;" id="elljgjtcqap3f" class="animable"></polygon><path d="M261,103.14V88.59s15.93-7.17,31.16,7.47l-7,14.12Z" style="fill: rgb(64, 123, 255); transform-origin: 276.58px 98.5072px;" id="elkp7ya7vjw6s" class="animable"></path><g id="eli46i7whocl"><rect x="273.94" y="90.47" width="1.84" height="5.63" style="fill: rgb(255, 255, 255); transform-origin: 274.86px 93.285px; transform: rotate(11.17deg);" class="animable"></rect></g><g id="eltnmfixev8u"><rect x="273.94" y="90.47" width="1.84" height="5.63" style="fill: rgb(255, 255, 255); transform-origin: 274.86px 93.285px; transform: rotate(-78.83deg);" class="animable"></rect></g><path d="M284,130c-2.91,4.19-5.58,3.61-5.58,3.61a16,16,0,0,1-3.37,4.23c-.48,13.07,3.37,16.6,3.37,16.6-4,6.17-8.94,6-13.94,4.2s-5.26-5.72-5.26-5.72c4.52-2.22,4.58-5.7,3.93-8.08a10.5,10.5,0,0,0-1.14-2.62c-8.49-2.33-10.94-10.47-10.36-18.15a41.51,41.51,0,0,1,3.38-13.5l5-7.57,19.55,4,1.05,10.36-4,7.68C283.68,119.83,286.94,125.76,284,130Z" style="fill: rgb(181, 91, 82); transform-origin: 268.325px 131.365px;" id="elj5tkpaa9j8n" class="animable"></path><path d="M261,129.9a9.4,9.4,0,0,1-1.42-.1.35.35,0,1,1,.12-.69s5,.87,7.15-2.83a.35.35,0,1,1,.61.35C265.81,129.45,262.76,129.9,261,129.9Z" style="fill: rgb(38, 50, 56); transform-origin: 263.398px 128.002px;" id="el8k25s31m77c" class="animable"></path><path d="M259.63,125.33c.21,0,1.06-6.38,1.06-6.38l-4.54,5.46A4,4,0,0,0,259.63,125.33Z" style="fill: rgb(160, 39, 36); transform-origin: 258.42px 122.183px;" id="elkzrgcgjcek" class="animable"></path><path d="M266.66,119.08c-.11.79-.6,1.38-1.09,1.31s-.8-.77-.69-1.56.6-1.39,1.09-1.32S266.77,118.28,266.66,119.08Z" style="fill: rgb(38, 50, 56); transform-origin: 265.77px 118.95px;" id="elx4n2d9f4sf" class="animable"></path><path d="M257,118.2c-.11.79-.6,1.38-1.09,1.31s-.8-.76-.69-1.56.6-1.38,1.09-1.31S257.16,117.4,257,118.2Z" style="fill: rgb(38, 50, 56); transform-origin: 256.118px 118.075px;" id="elh5n0fa952h" class="animable"></path><path d="M270.58,115.5a.47.47,0,0,1-.42-.27c-1.19-2.53-2.87-2.2-2.94-2.19a.47.47,0,0,1-.22-.91c.1,0,2.48-.56,4,2.7a.47.47,0,0,1-.23.63A.45.45,0,0,1,270.58,115.5Z" style="fill: rgb(38, 50, 56); transform-origin: 268.863px 113.797px;" id="elqxzehksj27" class="animable"></path><path d="M253.93,113.82a.45.45,0,0,1-.32-.13.46.46,0,0,1,0-.66c.12-.12,2.8-2.86,6.18-1.51a.47.47,0,0,1,.27.61.48.48,0,0,1-.62.26c-2.81-1.12-5.12,1.26-5.15,1.29A.44.44,0,0,1,253.93,113.82Z" style="fill: rgb(38, 50, 56); transform-origin: 256.781px 112.484px;" id="elth25sp7ydl" class="animable"></path><g id="el2xqdnclk0tm"><path d="M266.37,141.69a8.85,8.85,0,0,1-3.19,3.1,10.5,10.5,0,0,0-1.14-2.62A10.62,10.62,0,0,0,266.37,141.69Z" style="opacity: 0.2; transform-origin: 264.205px 143.24px;" class="animable"></path></g><path d="M278.65,107.88s-16.87,4.51-23.59,2.12-4.37-10.65-3.46-11.43c1.24-1.06,3.94,3.32,3.94,3.32s-2.21-4.69-.48-5.72,2,6,8.3,5.26,23.76-5.49,24.79,5.49a39,39,0,0,1-3.09,19.26s-.93-6-8.36-1.23c0,0-2.47-1.76,0-4.18C281,116.58,279.5,111.07,278.65,107.88Z" style="fill: rgb(38, 50, 56); transform-origin: 269.387px 111.123px;" id="els0dg64i8bu" class="animable"></path><path d="M276.86,107s-2.93,9.58,2.46,9.12,2.08-10.46,2.08-10.46Z" style="fill: rgb(38, 50, 56); transform-origin: 279.235px 110.898px;" id="el11bw4s8ppfu" class="animable"></path><path d="M262.69,102s-3.52-2.59-2.62-4.47,2.3,2.66,9.31,1.83,15.33-1.46,16.87,3.19-14,1.11-14,1.11l-9.58,2.06Z" style="fill: rgb(38, 50, 56); transform-origin: 273.14px 101.395px;" id="eliol2l9kzbu9" class="animable"></path><path d="M261.47,216.46l-6.77-1.91s-8-.49-8.67,2.56-1,8.31,2.18,8.73,13.08-.2,13.08-.2Z" style="fill: rgb(181, 91, 82); transform-origin: 253.528px 220.253px;" id="elwmfckju2huc" class="animable"></path><path d="M284.57,170l10.91-9.74s13.51,30,14.27,41.53-8.15,16.71-15.7,18.65-32.57,7.11-32.57,7.11l-1.35-13.92s26.65-4.55,36.91-9.26C297,204.4,287.77,177.55,284.57,170Z" style="fill: rgb(64, 123, 255); transform-origin: 284.963px 193.905px;" id="el23fa4w2qlh" class="animable"></path><g id="elfc7jhejhcgs"><polygon points="261.48 227.58 286.7 222.19 286.77 225.99 261.48 227.58" style="opacity: 0.1; transform-origin: 274.125px 224.885px;" class="animable"></polygon></g><path d="M264.5,158.59l2.87,7.58a81.3,81.3,0,0,0,12.52-11.41l-4.16-6.93S271.92,155.41,264.5,158.59Z" style="fill: rgb(250, 250, 250); transform-origin: 272.195px 157px;" id="el4mvvsktjkvg" class="animable"></path><path d="M262.4,150.3a19.65,19.65,0,0,0,2.1,8.29l-3.13,7a15.21,15.21,0,0,1-4.3-12.31Z" style="fill: rgb(250, 250, 250); transform-origin: 260.742px 157.945px;" id="elh3gxhosypes" class="animable"></path></g><defs>     <filter id="active" height="200%">         <feMorphology in="SourceAlpha" result="DILATED" operator="dilate" radius="2"></feMorphology>                <feFlood flood-color="#32DFEC" flood-opacity="1" result="PINK"></feFlood>        <feComposite in="PINK" in2="DILATED" operator="in" result="OUTLINE"></feComposite>        <feMerge>            <feMergeNode in="OUTLINE"></feMergeNode>            <feMergeNode in="SourceGraphic"></feMergeNode>        </feMerge>    </filter>    <filter id="hover" height="200%">        <feMorphology in="SourceAlpha" result="DILATED" operator="dilate" radius="2"></feMorphology>                <feFlood flood-color="#ff0000" flood-opacity="0.5" result="PINK"></feFlood>        <feComposite in="PINK" in2="DILATED" operator="in" result="OUTLINE"></feComposite>        <feMerge>            <feMergeNode in="OUTLINE"></feMergeNode>            <feMergeNode in="SourceGraphic"></feMergeNode>        </feMerge>            <feColorMatrix type="matrix" values="0   0   0   0   0                0   1   0   0   0                0   0   0   0   0                0   0   0   1   0 "></feColorMatrix>    </filter></defs></svg>