<svg class="animated" id="freepik_stories-medicine" xmlns="http://www.w3.org/2000/svg" viewBox="0 0 500 500" version="1.1" xmlns:xlink="http://www.w3.org/1999/xlink" xmlns:svgjs="http://svgjs.com/svgjs"><style>svg#freepik_stories-medicine:not(.animated) .animable {opacity: 0;}svg#freepik_stories-medicine.animated #elzcy980gjkz {animation: 5s 1 forwards cubic-bezier(.36,-0.01,.5,1.38) slideUp;animation-delay: 0s;}svg#freepik_stories-medicine.animated #elvi7p85vs4u {animation: 5s 1 forwards cubic-bezier(.36,-0.01,.5,1.38) slideUp;animation-delay: 0.125s;opacity: 0}svg#freepik_stories-medicine.animated #elcgmnmkz3v1g {animation: 5s 1 forwards cubic-bezier(.36,-0.01,.5,1.38) slideUp;animation-delay: 0.25s;opacity: 0}svg#freepik_stories-medicine.animated #el7nfnx89yb4s {animation: 5s 1 forwards cubic-bezier(.36,-0.01,.5,1.38) slideUp;animation-delay: 0.375s;opacity: 0}svg#freepik_stories-medicine.animated #eloalpzfolk2 {animation: 5s 1 forwards cubic-bezier(.36,-0.01,.5,1.38) slideUp;animation-delay: 0.5s;opacity: 0}svg#freepik_stories-medicine.animated #elx6c7hka7fbg {animation: 5s 1 forwards cubic-bezier(.36,-0.01,.5,1.38) slideUp;animation-delay: 0.625s;opacity: 0}svg#freepik_stories-medicine.animated #elisljjzg0w2n {animation: 5s 1 forwards cubic-bezier(.36,-0.01,.5,1.38) slideUp;animation-delay: 0.75s;opacity: 0}svg#freepik_stories-medicine.animated #elxk8xfirevv {animation: 5s 1 forwards cubic-bezier(.36,-0.01,.5,1.38) slideUp;animation-delay: 0.875s;opacity: 0}svg#freepik_stories-medicine.animated #elu4li4ubxwyd {animation: 5s 1 forwards cubic-bezier(.36,-0.01,.5,1.38) slideUp;animation-delay: 1s;opacity: 0}svg#freepik_stories-medicine.animated #elxbnrxz1o73f {animation: 5s 1 forwards cubic-bezier(.36,-0.01,.5,1.38) slideUp;animation-delay: 1.125s;opacity: 0}svg#freepik_stories-medicine.animated #ellupvp1jknfe {animation: 5s 1 forwards cubic-bezier(.36,-0.01,.5,1.38) slideUp;animation-delay: 1.25s;opacity: 0}svg#freepik_stories-medicine.animated #elky9fpcdxj7k {animation: 5s 1 forwards cubic-bezier(.36,-0.01,.5,1.38) slideUp;animation-delay: 1.375s;opacity: 0}svg#freepik_stories-medicine.animated #el5njtrlwuwk {animation: 5s 1 forwards cubic-bezier(.36,-0.01,.5,1.38) slideUp;animation-delay: 1.5s;opacity: 0}svg#freepik_stories-medicine.animated #elez8nsgqa5w5 {animation: 5s 1 forwards cubic-bezier(.36,-0.01,.5,1.38) slideUp;animation-delay: 1.625s;opacity: 0}svg#freepik_stories-medicine.animated #eln5clpluvlhf {animation: 5s 1 forwards cubic-bezier(.36,-0.01,.5,1.38) slideUp;animation-delay: 1.75s;opacity: 0}svg#freepik_stories-medicine.animated #elfzsjehf4t4n {animation: 5s 1 forwards cubic-bezier(.36,-0.01,.5,1.38) slideUp;animation-delay: 1.875s;opacity: 0}svg#freepik_stories-medicine.animated #ellmz2ibejk1s {animation: 5s 1 forwards cubic-bezier(.36,-0.01,.5,1.38) slideUp;animation-delay: 2s;opacity: 0}svg#freepik_stories-medicine.animated #el2psly1frmny {animation: 5s 1 forwards cubic-bezier(.36,-0.01,.5,1.38) slideUp;animation-delay: 2.125s;opacity: 0}svg#freepik_stories-medicine.animated #el3vycadatus {animation: 5s 1 forwards cubic-bezier(.36,-0.01,.5,1.38) slideUp;animation-delay: 2.25s;opacity: 0}svg#freepik_stories-medicine.animated #el3az4xo1e9vt {animation: 5s 1 forwards cubic-bezier(.36,-0.01,.5,1.38) slideUp;animation-delay: 2.375s;opacity: 0}svg#freepik_stories-medicine.animated #eluquc2jx87c {animation: 5s 1 forwards cubic-bezier(.36,-0.01,.5,1.38) slideUp;animation-delay: 2.5s;opacity: 0}svg#freepik_stories-medicine.animated #elkwyeoq57vbh {animation: 5s 1 forwards cubic-bezier(.36,-0.01,.5,1.38) slideUp;animation-delay: 2.625s;opacity: 0}svg#freepik_stories-medicine.animated #elg6a4l20336n {animation: 5s 1 forwards cubic-bezier(.36,-0.01,.5,1.38) slideUp;animation-delay: 2.75s;opacity: 0}svg#freepik_stories-medicine.animated #el526217trqyk {animation: 5s 1 forwards cubic-bezier(.36,-0.01,.5,1.38) slideUp;animation-delay: 2.875s;opacity: 0}svg#freepik_stories-medicine.animated #elk96pmfrefi {animation: 5s 1 forwards cubic-bezier(.36,-0.01,.5,1.38) slideUp;animation-delay: 3s;opacity: 0}svg#freepik_stories-medicine.animated #el94q8whqv5aw {animation: 5s 1 forwards cubic-bezier(.36,-0.01,.5,1.38) slideUp;animation-delay: 3.125s;opacity: 0}svg#freepik_stories-medicine.animated #elems3jymvtj7 {animation: 5s 1 forwards cubic-bezier(.36,-0.01,.5,1.38) slideUp;animation-delay: 3.25s;opacity: 0}svg#freepik_stories-medicine.animated #eloi7ag1jgy08 {animation: 5s 1 forwards cubic-bezier(.36,-0.01,.5,1.38) slideUp;animation-delay: 3.375s;opacity: 0}svg#freepik_stories-medicine.animated #el3q9n8hiay31 {animation: 5s 1 forwards cubic-bezier(.36,-0.01,.5,1.38) slideUp;animation-delay: 3.5s;opacity: 0}svg#freepik_stories-medicine.animated #el7yz2l64lpj2 {animation: 5s 1 forwards cubic-bezier(.36,-0.01,.5,1.38) slideUp;animation-delay: 3.625s;opacity: 0}svg#freepik_stories-medicine.animated #elre37yy0gvdk {animation: 5s 1 forwards cubic-bezier(.36,-0.01,.5,1.38) slideUp;animation-delay: 3.75s;opacity: 0}svg#freepik_stories-medicine.animated #el3zactsey6pg {animation: 5s 1 forwards cubic-bezier(.36,-0.01,.5,1.38) slideUp;animation-delay: 3.875s;opacity: 0}svg#freepik_stories-medicine.animated #eld699qkn8p1 {animation: 5s 1 forwards cubic-bezier(.36,-0.01,.5,1.38) slideUp;animation-delay: 4s;opacity: 0}svg#freepik_stories-medicine.animated #elqdri3c1p62l {animation: 5s 1 forwards cubic-bezier(.36,-0.01,.5,1.38) slideUp;animation-delay: 4.125s;opacity: 0}svg#freepik_stories-medicine.animated #el0livu8mqomfp {animation: 5s 1 forwards cubic-bezier(.36,-0.01,.5,1.38) slideUp;animation-delay: 4.25s;opacity: 0}svg#freepik_stories-medicine.animated #el3ow5zeqh2fr {animation: 5s 1 forwards cubic-bezier(.36,-0.01,.5,1.38) slideUp;animation-delay: 4.375s;opacity: 0}svg#freepik_stories-medicine.animated #elwqdq2dn2rk {animation: 5s 1 forwards cubic-bezier(.36,-0.01,.5,1.38) slideUp;animation-delay: 4.5s;opacity: 0}svg#freepik_stories-medicine.animated #eljhwyaxafnyd {animation: 5s 1 forwards cubic-bezier(.36,-0.01,.5,1.38) slideUp;animation-delay: 4.625s;opacity: 0}svg#freepik_stories-medicine.animated #el4wso2tzbc9w {animation: 5s 1 forwards cubic-bezier(.36,-0.01,.5,1.38) slideUp;animation-delay: 4.75s;opacity: 0}svg#freepik_stories-medicine.animated #el9c2u1e8m0t {animation: 5s 1 forwards cubic-bezier(.36,-0.01,.5,1.38) slideUp;animation-delay: 4.875s;opacity: 0}svg#freepik_stories-medicine.animated #freepik--background-complete--inject-48 {animation: 5s 1 forwards cubic-bezier(.36,-0.01,.5,1.38) slideUp;animation-delay: 0s;}svg#freepik_stories-medicine.animated #eljea72z9p0g {animation: 5s 1 forwards cubic-bezier(.36,-0.01,.5,1.38) slideRight;animation-delay: 0s;}svg#freepik_stories-medicine.animated #freepik--Shadow--inject-48 {animation: 5s 1 forwards cubic-bezier(.36,-0.01,.5,1.38) slideRight;animation-delay: 0s;}svg#freepik_stories-medicine.animated #elpsqj2462u3h {animation: 5s 1 forwards cubic-bezier(.36,-0.01,.5,1.38) slideRight;animation-delay: 0s;}svg#freepik_stories-medicine.animated #elvt6uq9p0czb {animation: 5s 1 forwards cubic-bezier(.36,-0.01,.5,1.38) slideRight;animation-delay: 0.3333333333333333s;opacity: 0}svg#freepik_stories-medicine.animated #el5rqiy9pxxiw {animation: 5s 1 forwards cubic-bezier(.36,-0.01,.5,1.38) slideRight;animation-delay: 0.6666666666666666s;opacity: 0}svg#freepik_stories-medicine.animated #elv13hum1m4z {animation: 5s 1 forwards cubic-bezier(.36,-0.01,.5,1.38) slideRight;animation-delay: 1s;opacity: 0}svg#freepik_stories-medicine.animated #el47xlx2evd86 {animation: 5s 1 forwards cubic-bezier(.36,-0.01,.5,1.38) slideRight;animation-delay: 1.3333333333333333s;opacity: 0}svg#freepik_stories-medicine.animated #eljnauc7srfq {animation: 5s 1 forwards cubic-bezier(.36,-0.01,.5,1.38) slideRight;animation-delay: 1.6666666666666665s;opacity: 0}svg#freepik_stories-medicine.animated #elxf9gqjo4nq {animation: 5s 1 forwards cubic-bezier(.36,-0.01,.5,1.38) slideRight;animation-delay: 2s;opacity: 0}svg#freepik_stories-medicine.animated #eln6k71xjkcg {animation: 5s 1 forwards cubic-bezier(.36,-0.01,.5,1.38) slideRight;animation-delay: 2.333333333333333s;opacity: 0}svg#freepik_stories-medicine.animated #elnkrf1n1vte {animation: 5s 1 forwards cubic-bezier(.36,-0.01,.5,1.38) slideRight;animation-delay: 2.6666666666666665s;opacity: 0}svg#freepik_stories-medicine.animated #elslxu1qyfh {animation: 5s 1 forwards cubic-bezier(.36,-0.01,.5,1.38) slideRight;animation-delay: 3s;opacity: 0}svg#freepik_stories-medicine.animated #elhp8doa7bq7o {animation: 5s 1 forwards cubic-bezier(.36,-0.01,.5,1.38) slideRight;animation-delay: 3.333333333333333s;opacity: 0}svg#freepik_stories-medicine.animated #elte9pdt8ojmb {animation: 5s 1 forwards cubic-bezier(.36,-0.01,.5,1.38) slideRight;animation-delay: 3.6666666666666665s;opacity: 0}svg#freepik_stories-medicine.animated #el08vobch3u4zh {animation: 5s 1 forwards cubic-bezier(.36,-0.01,.5,1.38) slideRight;animation-delay: 4s;opacity: 0}svg#freepik_stories-medicine.animated #el94gzul4cwxb {animation: 5s 1 forwards cubic-bezier(.36,-0.01,.5,1.38) slideRight;animation-delay: 4.333333333333333s;opacity: 0}svg#freepik_stories-medicine.animated #eljj791r3h5j {animation: 5s 1 forwards cubic-bezier(.36,-0.01,.5,1.38) slideRight;animation-delay: 4.666666666666666s;opacity: 0}svg#freepik_stories-medicine.animated #freepik--Box--inject-48 {animation: 5s 1 forwards cubic-bezier(.36,-0.01,.5,1.38) slideRight;animation-delay: 0s;}svg#freepik_stories-medicine.animated #elldvomb6se8 {animation: 5s 1 forwards cubic-bezier(.36,-0.01,.5,1.38) lightSpeedLeft;animation-delay: 0s;}svg#freepik_stories-medicine.animated #elfwkmtol1q6 {animation: 5s 1 forwards cubic-bezier(.36,-0.01,.5,1.38) lightSpeedLeft;animation-delay: 0.11904761904761904s;opacity: 0}svg#freepik_stories-medicine.animated #el5wt9mkrlg9 {animation: 5s 1 forwards cubic-bezier(.36,-0.01,.5,1.38) lightSpeedLeft;animation-delay: 0.23809523809523808s;opacity: 0}svg#freepik_stories-medicine.animated #eln55l8v9rv8h {animation: 5s 1 forwards cubic-bezier(.36,-0.01,.5,1.38) lightSpeedLeft;animation-delay: 0.3571428571428571s;opacity: 0}svg#freepik_stories-medicine.animated #el1ehv48c81r4 {animation: 5s 1 forwards cubic-bezier(.36,-0.01,.5,1.38) lightSpeedLeft;animation-delay: 0.47619047619047616s;opacity: 0}svg#freepik_stories-medicine.animated #el0f60pgy11s7 {animation: 5s 1 forwards cubic-bezier(.36,-0.01,.5,1.38) lightSpeedLeft;animation-delay: 0.5952380952380952s;opacity: 0}svg#freepik_stories-medicine.animated #elmkskf0ybdn {animation: 5s 1 forwards cubic-bezier(.36,-0.01,.5,1.38) lightSpeedLeft;animation-delay: 0.7142857142857142s;opacity: 0}svg#freepik_stories-medicine.animated #elwpw9f7v5cni {animation: 5s 1 forwards cubic-bezier(.36,-0.01,.5,1.38) lightSpeedLeft;animation-delay: 0.8333333333333333s;opacity: 0}svg#freepik_stories-medicine.animated #eljpgmzsfeprn {animation: 5s 1 forwards cubic-bezier(.36,-0.01,.5,1.38) lightSpeedLeft;animation-delay: 0.9523809523809523s;opacity: 0}svg#freepik_stories-medicine.animated #el7wn6y0qf5o {animation: 5s 1 forwards cubic-bezier(.36,-0.01,.5,1.38) lightSpeedLeft;animation-delay: 1.0714285714285714s;opacity: 0}svg#freepik_stories-medicine.animated #el0aqk1cyfguj {animation: 5s 1 forwards cubic-bezier(.36,-0.01,.5,1.38) lightSpeedLeft;animation-delay: 1.1904761904761905s;opacity: 0}svg#freepik_stories-medicine.animated #elxmdeeh054m {animation: 5s 1 forwards cubic-bezier(.36,-0.01,.5,1.38) lightSpeedLeft;animation-delay: 1.3095238095238095s;opacity: 0}svg#freepik_stories-medicine.animated #elxvev9v0zpfr {animation: 5s 1 forwards cubic-bezier(.36,-0.01,.5,1.38) lightSpeedLeft;animation-delay: 1.4285714285714284s;opacity: 0}svg#freepik_stories-medicine.animated #el8n1b2ss0gx {animation: 5s 1 forwards cubic-bezier(.36,-0.01,.5,1.38) lightSpeedLeft;animation-delay: 1.5476190476190474s;opacity: 0}svg#freepik_stories-medicine.animated #el8rb230uckxc {animation: 5s 1 forwards cubic-bezier(.36,-0.01,.5,1.38) lightSpeedLeft;animation-delay: 1.6666666666666665s;opacity: 0}svg#freepik_stories-medicine.animated #el5hrfavs046k {animation: 5s 1 forwards cubic-bezier(.36,-0.01,.5,1.38) lightSpeedLeft;animation-delay: 1.7857142857142856s;opacity: 0}svg#freepik_stories-medicine.animated #el6qwwilyprcb {animation: 5s 1 forwards cubic-bezier(.36,-0.01,.5,1.38) lightSpeedLeft;animation-delay: 1.9047619047619047s;opacity: 0}svg#freepik_stories-medicine.animated #elog98famf5ch {animation: 5s 1 forwards cubic-bezier(.36,-0.01,.5,1.38) lightSpeedLeft;animation-delay: 2.0238095238095237s;opacity: 0}svg#freepik_stories-medicine.animated #el466bu9xhshx {animation: 5s 1 forwards cubic-bezier(.36,-0.01,.5,1.38) lightSpeedLeft;animation-delay: 2.142857142857143s;opacity: 0}svg#freepik_stories-medicine.animated #elbodxgvwlvo {animation: 5s 1 forwards cubic-bezier(.36,-0.01,.5,1.38) lightSpeedLeft;animation-delay: 2.261904761904762s;opacity: 0}svg#freepik_stories-medicine.animated #el8pke8m0h8v8 {animation: 5s 1 forwards cubic-bezier(.36,-0.01,.5,1.38) lightSpeedLeft;animation-delay: 2.380952380952381s;opacity: 0}svg#freepik_stories-medicine.animated #el0hlrthefskam {animation: 5s 1 forwards cubic-bezier(.36,-0.01,.5,1.38) lightSpeedLeft;animation-delay: 2.5s;opacity: 0}svg#freepik_stories-medicine.animated #elogggwkoojxf {animation: 5s 1 forwards cubic-bezier(.36,-0.01,.5,1.38) lightSpeedLeft;animation-delay: 2.619047619047619s;opacity: 0}svg#freepik_stories-medicine.animated #eleki81jbbxy7 {animation: 5s 1 forwards cubic-bezier(.36,-0.01,.5,1.38) lightSpeedLeft;animation-delay: 2.738095238095238s;opacity: 0}svg#freepik_stories-medicine.animated #elspuz87q5hld {animation: 5s 1 forwards cubic-bezier(.36,-0.01,.5,1.38) lightSpeedLeft;animation-delay: 2.8571428571428568s;opacity: 0}svg#freepik_stories-medicine.animated #eluxnqr763k8 {animation: 5s 1 forwards cubic-bezier(.36,-0.01,.5,1.38) lightSpeedLeft;animation-delay: 2.976190476190476s;opacity: 0}svg#freepik_stories-medicine.animated #elnvd63vsyar9 {animation: 5s 1 forwards cubic-bezier(.36,-0.01,.5,1.38) lightSpeedLeft;animation-delay: 3.095238095238095s;opacity: 0}svg#freepik_stories-medicine.animated #el2ylrph9nbc5 {animation: 5s 1 forwards cubic-bezier(.36,-0.01,.5,1.38) lightSpeedLeft;animation-delay: 3.214285714285714s;opacity: 0}svg#freepik_stories-medicine.animated #el4jrchst2j6p {animation: 5s 1 forwards cubic-bezier(.36,-0.01,.5,1.38) lightSpeedLeft;animation-delay: 3.333333333333333s;opacity: 0}svg#freepik_stories-medicine.animated #elvuyx4kxf {animation: 5s 1 forwards cubic-bezier(.36,-0.01,.5,1.38) lightSpeedLeft;animation-delay: 3.452380952380952s;opacity: 0}svg#freepik_stories-medicine.animated #el91r0uzuobh4 {animation: 5s 1 forwards cubic-bezier(.36,-0.01,.5,1.38) lightSpeedLeft;animation-delay: 3.571428571428571s;opacity: 0}svg#freepik_stories-medicine.animated #el01pgmesfmkaz {animation: 5s 1 forwards cubic-bezier(.36,-0.01,.5,1.38) lightSpeedLeft;animation-delay: 3.6904761904761902s;opacity: 0}svg#freepik_stories-medicine.animated #ely8wyxf4zcea {animation: 5s 1 forwards cubic-bezier(.36,-0.01,.5,1.38) lightSpeedLeft;animation-delay: 3.8095238095238093s;opacity: 0}svg#freepik_stories-medicine.animated #elj1iv52w2ta {animation: 5s 1 forwards cubic-bezier(.36,-0.01,.5,1.38) lightSpeedLeft;animation-delay: 3.9285714285714284s;opacity: 0}svg#freepik_stories-medicine.animated #elcpd0z40kdne {animation: 5s 1 forwards cubic-bezier(.36,-0.01,.5,1.38) lightSpeedLeft;animation-delay: 4.0476190476190474s;opacity: 0}svg#freepik_stories-medicine.animated #elh6kjb916c9b {animation: 5s 1 forwards cubic-bezier(.36,-0.01,.5,1.38) lightSpeedLeft;animation-delay: 4.166666666666666s;opacity: 0}svg#freepik_stories-medicine.animated #el1rbf6rdsfki {animation: 5s 1 forwards cubic-bezier(.36,-0.01,.5,1.38) lightSpeedLeft;animation-delay: 4.285714285714286s;opacity: 0}svg#freepik_stories-medicine.animated #el0hcz9nutqi98 {animation: 5s 1 forwards cubic-bezier(.36,-0.01,.5,1.38) lightSpeedLeft;animation-delay: 4.404761904761904s;opacity: 0}svg#freepik_stories-medicine.animated #elyjysqj0skg {animation: 5s 1 forwards cubic-bezier(.36,-0.01,.5,1.38) lightSpeedLeft;animation-delay: 4.523809523809524s;opacity: 0}svg#freepik_stories-medicine.animated #elqgx3d8ivfai {animation: 5s 1 forwards cubic-bezier(.36,-0.01,.5,1.38) lightSpeedLeft;animation-delay: 4.642857142857142s;opacity: 0}svg#freepik_stories-medicine.animated #el9e1hj79j5n6 {animation: 5s 1 forwards cubic-bezier(.36,-0.01,.5,1.38) lightSpeedLeft;animation-delay: 4.761904761904762s;opacity: 0}svg#freepik_stories-medicine.animated #elmvbjjk4mizb {animation: 5s 1 forwards cubic-bezier(.36,-0.01,.5,1.38) lightSpeedLeft;animation-delay: 4.8809523809523805s;opacity: 0}svg#freepik_stories-medicine.animated #freepik--Character--inject-48 {animation: 5s 1 forwards cubic-bezier(.36,-0.01,.5,1.38) lightSpeedLeft;animation-delay: 0s;}            @keyframes slideUp {                0% {                    opacity: 0;                    transform: translateY(30px);                }                100% {                    opacity: 1;                    transform: inherit;                }            }                    @keyframes slideRight {                0% {                    opacity: 0;                    transform: translateX(30px);                }                100% {                    opacity: 1;                    transform: translateX(0);                }            }                    @keyframes lightSpeedLeft {              from {                transform: translate3d(-50%, 0, 0) skewX(20deg);                opacity: 0;              }              60% {                transform: skewX(-10deg);                opacity: 1;              }              80% {                transform: skewX(2deg);              }              to {                opacity: 1;                transform: translate3d(0, 0, 0);              }            }        </style><g id="freepik--background-complete--inject-48" class="animable" style="transform-origin: 250px 224.695px;"><rect y="382.4" width="500" height="0.25" style="fill: rgb(235, 235, 235); transform-origin: 250px 382.525px;" id="elzcy980gjkz" class="animable"></rect><rect x="150.04" y="388.78" width="23.18" height="0.25" style="fill: rgb(235, 235, 235); transform-origin: 161.63px 388.905px;" id="elvi7p85vs4u" class="animable"></rect><rect x="402.1" y="394.14" width="56.67" height="0.25" style="fill: rgb(235, 235, 235); transform-origin: 430.435px 394.265px;" id="elcgmnmkz3v1g" class="animable"></rect><rect x="42.72" y="394.14" width="56.67" height="0.25" style="fill: rgb(235, 235, 235); transform-origin: 71.055px 394.265px;" id="el7nfnx89yb4s" class="animable"></rect><path d="M237,337.8H43.91a5.71,5.71,0,0,1-5.7-5.71V60.66A5.71,5.71,0,0,1,43.91,55H237a5.71,5.71,0,0,1,5.71,5.71h0V332.09A5.71,5.71,0,0,1,237,337.8ZM43.91,55.2a5.46,5.46,0,0,0-5.45,5.46V332.09a5.46,5.46,0,0,0,5.45,5.46H237a5.48,5.48,0,0,0,5.46-5.46V60.66A5.48,5.48,0,0,0,237,55.2Z" style="fill: rgb(235, 235, 235); transform-origin: 140.46px 196.4px;" id="eloalpzfolk2" class="animable"></path><path d="M453.31,337.8H260.21a5.73,5.73,0,0,1-5.71-5.71V60.66A5.72,5.72,0,0,1,260.21,55h193.1A5.71,5.71,0,0,1,459,60.66V332.09A5.7,5.7,0,0,1,453.31,337.8ZM260.21,55.2a5.48,5.48,0,0,0-5.46,5.46V332.09a5.48,5.48,0,0,0,5.46,5.46h193.1a5.48,5.48,0,0,0,5.46-5.46V60.66a5.48,5.48,0,0,0-5.46-5.46Z" style="fill: rgb(235, 235, 235); transform-origin: 356.75px 196.4px;" id="elx6c7hka7fbg" class="animable"></path><rect x="73.39" y="241.63" width="140.77" height="140.77" style="fill: rgb(224, 224, 224); transform-origin: 143.775px 312.015px;" id="elisljjzg0w2n" class="animable"></rect><rect x="59.9" y="241.63" width="129.28" height="140.77" style="fill: rgb(235, 235, 235); transform-origin: 124.54px 312.015px;" id="elxk8xfirevv" class="animable"></rect><rect x="65.11" y="249.25" width="118.7" height="38.44" style="fill: rgb(245, 245, 245); transform-origin: 124.46px 268.47px;" id="elu4li4ubxwyd" class="animable"></rect><rect x="65.11" y="293.74" width="118.7" height="38.44" style="fill: rgb(245, 245, 245); transform-origin: 124.46px 312.96px;" id="elxbnrxz1o73f" class="animable"></rect><rect x="65.11" y="336.35" width="118.7" height="38.44" style="fill: rgb(245, 245, 245); transform-origin: 124.46px 355.57px;" id="ellupvp1jknfe" class="animable"></rect><path d="M125.72,266.34a4.2,4.2,0,1,1-4.2-4.2A4.2,4.2,0,0,1,125.72,266.34Z" style="fill: rgb(250, 250, 250); transform-origin: 121.52px 266.34px;" id="elky9fpcdxj7k" class="animable"></path><path d="M124.54,351.68a3,3,0,1,1-3-3A3,3,0,0,1,124.54,351.68Z" style="fill: rgb(250, 250, 250); transform-origin: 121.54px 351.68px;" id="el5njtrlwuwk" class="animable"></path><path d="M124.54,312.38a3,3,0,1,1-3-3A3,3,0,0,1,124.54,312.38Z" style="fill: rgb(250, 250, 250); transform-origin: 121.54px 312.38px;" id="elez8nsgqa5w5" class="animable"></path><rect x="68.1" y="68.69" width="163.66" height="107.87" style="fill: rgb(224, 224, 224); transform-origin: 149.93px 122.625px;" id="eln5clpluvlhf" class="animable"></rect><rect x="64.94" y="68.69" width="163.66" height="107.87" style="fill: rgb(240, 240, 240); transform-origin: 146.77px 122.625px;" id="elfzsjehf4t4n" class="animable"></rect><rect x="69.64" y="73.83" width="152.94" height="98.44" style="fill: rgb(250, 250, 250); transform-origin: 146.11px 123.05px;" id="ellmz2ibejk1s" class="animable"></rect><polygon points="217.42 75.23 173.91 172.27 156.03 172.27 197.88 75.23 217.42 75.23" style="fill: rgb(255, 255, 255); transform-origin: 186.725px 123.75px;" id="el2psly1frmny" class="animable"></polygon><polygon points="181.77 75.23 137.58 172.27 116.62 172.27 162.82 75.23 181.77 75.23" style="fill: rgb(255, 255, 255); transform-origin: 149.195px 123.75px;" id="el3vycadatus" class="animable"></polygon><rect x="64.94" y="68.69" width="166.6" height="6.54" style="fill: rgb(224, 224, 224); transform-origin: 148.24px 71.96px;" id="el3az4xo1e9vt" class="animable"></rect><rect x="64.94" y="76.92" width="166.6" height="6.54" style="fill: rgb(224, 224, 224); transform-origin: 148.24px 80.19px;" id="eluquc2jx87c" class="animable"></rect><rect x="64.94" y="85.15" width="166.6" height="6.54" style="fill: rgb(224, 224, 224); transform-origin: 148.24px 88.42px;" id="elkwyeoq57vbh" class="animable"></rect><rect x="64.94" y="93.37" width="166.6" height="6.54" style="fill: rgb(224, 224, 224); transform-origin: 148.24px 96.64px;" id="elg6a4l20336n" class="animable"></rect><rect x="64.94" y="101.6" width="166.6" height="6.54" style="fill: rgb(224, 224, 224); transform-origin: 148.24px 104.87px;" id="el526217trqyk" class="animable"></rect><rect x="61.37" y="176.56" width="175.14" height="8.14" style="fill: rgb(224, 224, 224); transform-origin: 148.94px 180.63px;" id="elk96pmfrefi" class="animable"></rect><polygon points="439.17 298.58 439.17 382.4 409.55 382.4 407.97 374.01 292.88 374.01 292.88 298.58 439.17 298.58" style="fill: rgb(224, 224, 224); transform-origin: 366.025px 340.49px;" id="el94q8whqv5aw" class="animable"></polygon><polygon points="418.88 298.58 418.88 382.4 409.55 382.4 407.97 374.01 290.59 374.01 288.73 382.4 272.59 382.4 272.59 298.58 418.88 298.58" style="fill: rgb(235, 235, 235); transform-origin: 345.735px 340.49px;" id="elems3jymvtj7" class="animable"></polygon><rect x="280.02" y="304.46" width="130.61" height="28.88" style="fill: none; stroke: rgb(250, 250, 250); stroke-miterlimit: 10; transform-origin: 345.325px 318.9px;" id="eloi7ag1jgy08" class="animable"></rect><rect x="280.02" y="339.09" width="130.61" height="29.17" style="fill: none; stroke: rgb(250, 250, 250); stroke-miterlimit: 10; transform-origin: 345.325px 353.675px;" id="el3q9n8hiay31" class="animable"></rect><rect x="377.81" y="64.43" width="58.73" height="79.43" style="fill: rgb(224, 224, 224); transform-origin: 407.175px 104.145px;" id="el7yz2l64lpj2" class="animable"></rect><rect x="374.87" y="64.38" width="58.73" height="79.43" style="fill: rgb(230, 230, 230); transform-origin: 404.235px 104.095px;" id="elre37yy0gvdk" class="animable"></rect><rect x="377.81" y="67.36" width="52.74" height="73.59" style="fill: rgb(250, 250, 250); transform-origin: 404.18px 104.155px;" id="el3zactsey6pg" class="animable"></rect><rect x="384.86" y="124.98" width="40.31" height="1.72" style="fill: rgb(224, 224, 224); transform-origin: 405.015px 125.84px;" id="eld699qkn8p1" class="animable"></rect><rect x="384.86" y="129.37" width="40.31" height="1.72" style="fill: rgb(224, 224, 224); transform-origin: 405.015px 130.23px;" id="elqdri3c1p62l" class="animable"></rect><rect x="384.86" y="133.76" width="40.31" height="1.72" style="fill: rgb(224, 224, 224); transform-origin: 405.015px 134.62px;" id="el0livu8mqomfp" class="animable"></rect><path d="M419.41,94.58A14.39,14.39,0,1,1,405,80.19,14.39,14.39,0,0,1,419.41,94.58Z" style="fill: none; stroke: rgb(224, 224, 224); stroke-miterlimit: 10; transform-origin: 405.02px 94.58px;" id="el3ow5zeqh2fr" class="animable"></path><rect x="363.4" y="164.37" width="50.15" height="50.15" style="fill: rgb(224, 224, 224); transform-origin: 388.475px 189.445px;" id="elwqdq2dn2rk" class="animable"></rect><rect x="359.11" y="164.37" width="50.15" height="50.15" style="fill: rgb(235, 235, 235); transform-origin: 384.185px 189.445px;" id="eljhwyaxafnyd" class="animable"></rect><rect x="362.58" y="167.84" width="43.22" height="43.22" style="fill: rgb(250, 250, 250); transform-origin: 384.19px 189.45px;" id="el4wso2tzbc9w" class="animable"></rect><rect x="372.73" y="177.98" width="22.92" height="22.92" style="fill: rgb(224, 224, 224); transform-origin: 384.19px 189.44px;" id="el9c2u1e8m0t" class="animable"></rect></g><g id="freepik--Shadow--inject-48" class="animable" style="transform-origin: 248.08px 440.07px;"><ellipse cx="248.08" cy="440.07" rx="167.16" ry="12.64" style="fill: rgb(245, 245, 245); transform-origin: 248.08px 440.07px;" id="eljea72z9p0g" class="animable"></ellipse></g><g id="freepik--Box--inject-48" class="animable" style="transform-origin: 152.215px 379.45px;"><rect x="98.98" y="373.21" width="61.52" height="69.43" style="fill: rgb(64, 123, 255); transform-origin: 129.74px 407.925px;" id="elpsqj2462u3h" class="animable"></rect><rect x="129.74" y="373.21" width="61.52" height="69.43" style="fill: rgb(64, 123, 255); transform-origin: 160.5px 407.925px;" id="elvt6uq9p0czb" class="animable"></rect><g id="el5rqiy9pxxiw"><rect x="98.98" y="373.21" width="61.52" height="69.43" style="fill: rgb(255, 255, 255); opacity: 0.7; transform-origin: 129.74px 407.925px;" class="animable"></rect></g><g id="elv13hum1m4z"><rect x="160.43" y="373.21" width="30.82" height="69.43" style="fill: rgb(255, 255, 255); opacity: 0.2; transform-origin: 175.84px 407.925px;" class="animable"></rect></g><g id="el47xlx2evd86"><ellipse cx="174.86" cy="408.28" rx="7.83" ry="13.52" style="fill: rgb(255, 255, 255); transform-origin: 174.86px 408.28px; transform: rotate(-1.34deg);" class="animable"></ellipse></g><polygon points="179.6 405.99 176.26 406.07 176.13 400.41 173.55 400.47 173.68 406.13 170.01 406.22 170.11 410.63 173.78 410.54 173.92 416.15 176.5 416.09 176.37 410.48 179.71 410.4 179.6 405.99" style="fill: rgb(64, 123, 255); transform-origin: 174.86px 408.28px;" id="eljnauc7srfq" class="animable"></polygon><rect x="124.77" y="373.21" width="12.46" height="12.46" style="fill: rgb(245, 245, 245); transform-origin: 131px 379.44px;" id="elxf9gqjo4nq" class="animable"></rect><rect x="124.77" y="398.1" width="12.46" height="44.54" style="fill: rgb(245, 245, 245); transform-origin: 131px 420.37px;" id="eln6k71xjkcg" class="animable"></rect><rect x="129.74" y="316.26" width="50.47" height="56.97" style="fill: rgb(64, 123, 255); transform-origin: 154.975px 344.745px;" id="elnkrf1n1vte" class="animable"></rect><rect x="154.98" y="316.26" width="50.47" height="56.97" style="fill: rgb(64, 123, 255); transform-origin: 180.215px 344.745px;" id="elslxu1qyfh" class="animable"></rect><g id="elhp8doa7bq7o"><rect x="129.74" y="316.26" width="42.6" height="56.97" style="fill: rgb(255, 255, 255); opacity: 0.7; transform-origin: 151.04px 344.745px;" class="animable"></rect></g><g id="elte9pdt8ojmb"><rect x="172.34" y="316.26" width="33.11" height="56.97" style="fill: rgb(255, 255, 255); opacity: 0.2; transform-origin: 188.895px 344.745px;" class="animable"></rect></g><path d="M195.31,344.89c.15,6.12-2.61,11.16-6.16,11.24s-6.54-4.82-6.68-10.94S185.09,334,188.63,334,195.17,338.76,195.31,344.89Z" style="fill: rgb(255, 255, 255); transform-origin: 188.89px 345.065px;" id="el08vobch3u4zh" class="animable"></path><polygon points="192.79 343.16 190.05 343.22 189.94 338.57 187.82 338.62 187.93 343.27 184.91 343.34 185 346.96 188.01 346.89 188.12 351.5 190.24 351.44 190.13 346.84 192.87 346.78 192.79 343.16" style="fill: rgb(64, 123, 255); transform-origin: 188.89px 345.035px;" id="el94gzul4cwxb" class="animable"></polygon><rect x="140.67" y="316.26" width="10.23" height="56.97" style="fill: rgb(245, 245, 245); transform-origin: 145.785px 344.745px;" id="eljj791r3h5j" class="animable"></rect></g><g id="freepik--Character--inject-48" class="animable" style="transform-origin: 245.019px 265.346px;"><path d="M238.39,239.1s-14.73,69.76-16,92.9,4.77,81.29,4.77,81.29l18.82,3,3.59-74.21,8.25-56.57s8.64,46,12.36,56.77,21.47,42,36.13,66.95L318.91,400s-23.55-67.34-27.57-80.49-1.3-68.9-13.7-84.73Z" style="fill: rgb(64, 123, 255); transform-origin: 270.562px 325.535px;" id="elldvomb6se8" class="animable"></path><g id="elfwkmtol1q6"><path d="M238.39,239.1s-14.73,69.76-16,92.9,4.77,81.29,4.77,81.29l18.82,3,3.59-74.21,8.25-56.57s8.64,46,12.36,56.77,21.47,42,36.13,66.95L318.91,400s-23.55-67.34-27.57-80.49-1.3-68.9-13.7-84.73Z" style="fill: rgb(255, 255, 255); opacity: 0.4; transform-origin: 270.562px 325.535px;" class="animable"></path></g><path d="M241.89,432.6c-.09.56-9.85-1.56-9.85-1.56l-.66-9.64-.26-3.78,10-.88s.17,2.88.35,6.18C241.67,427.24,242,432.27,241.89,432.6Z" style="fill: rgb(181, 91, 82); transform-origin: 236.516px 424.717px;" id="el5wt9mkrlg9" class="animable"></path><g id="eln55l8v9rv8h"><path d="M241.43,422.92l-10.05-1.52-.26-3.78,10-.88S241.25,419.62,241.43,422.92Z" style="opacity: 0.2; transform-origin: 236.275px 419.83px;" class="animable"></path></g><path d="M224.89,434.43l-.4-.55c-.12-.17-3-4.2-2.58-6.18a1.33,1.33,0,0,1,.68-.91.91.91,0,0,1,.94,0c1.43.87,1.38,6.35,1.37,7Zm-1.8-7.32a.64.64,0,0,0-.29.08.92.92,0,0,0-.45.61c-.31,1.36,1.31,4,2.1,5.22,0-1.93-.26-5.31-1.15-5.85A.4.4,0,0,0,223.09,427.11Z" style="fill: rgb(64, 123, 255); transform-origin: 223.385px 430.545px;" id="el1ehv48c81r4" class="animable"></path><path d="M223.88,434.49l-.58-.24c-.62-.25-6.06-2.52-6.4-4.47a1.15,1.15,0,0,1,.41-1.07,1.41,1.41,0,0,1,1.24-.35c2.2.38,4.92,5.36,5,5.57Zm-5.61-5.71a.92.92,0,0,0-.65.27.68.68,0,0,0-.27.66c.22,1.28,3.62,3,5.5,3.86-.78-1.33-2.8-4.49-4.38-4.77Z" style="fill: rgb(64, 123, 255); transform-origin: 220.383px 431.411px;" id="el0f60pgy11s7" class="animable"></path><path d="M241.57,432.06l-10.1-1.59a2.55,2.55,0,0,0-1.8.39,21.12,21.12,0,0,1-7.75,3.22c-4.32.61-8.16-.24-8.52,1a3.71,3.71,0,0,0,1.86,4.19c1.42.74,18.82,3.44,26.16,4.56a2.56,2.56,0,0,0,2.93-2.77l-.63-6.7A2.58,2.58,0,0,0,241.57,432.06Z" style="fill: rgb(34, 34, 33); transform-origin: 228.824px 437.149px;" id="elmkskf0ybdn" class="animable"></path><polygon points="224.67 410.98 226.25 419.3 246.85 421.26 247.46 412.84 224.67 410.98" style="fill: rgb(64, 123, 255); transform-origin: 236.065px 416.12px;" id="elwpw9f7v5cni" class="animable"></polygon><path d="M325.24,410.44c.28.5-8.68,4.91-8.68,4.91l-5.94-6.53-3.11-3.43,3.16-3,4.1-3.87s.42.48,1.11,1.24l3.64,4.1C322.22,406.92,325.1,410.19,325.24,410.44Z" style="fill: rgb(181, 91, 82); transform-origin: 316.378px 406.935px;" id="eljpgmzsfeprn" class="animable"></path><g id="el7wn6y0qf5o"><path d="M319.52,403.87l-8.9,4.95-3.11-3.43,3.16-3,5.21-2.63Z" style="opacity: 0.2; transform-origin: 313.515px 404.29px;" class="animable"></path></g><path d="M313.65,419.34l-.52-.24c-.19-.08-4.58-2.09-5-3.86a1.11,1.11,0,0,1,.28-1,1.23,1.23,0,0,1,1.15-.46c1.78.29,3.63,4.56,3.84,5.05Zm-4.25-5.14a.8.8,0,0,0-.62.32.67.67,0,0,0-.17.63c.24,1.12,2.72,2.56,4.15,3.28-.69-1.48-2.11-4-3.24-4.22Z" style="fill: rgb(64, 123, 255); transform-origin: 310.877px 416.553px;" id="el0aqk1cyfguj" class="animable"></path><path d="M307.07,421.44a3.8,3.8,0,0,1-2.55-.65,1.42,1.42,0,0,1-.33-1.48,2,2,0,0,1,1.17-1.4c2.61-1.18,8.44,1.79,8.69,1.92l.5.26-.54.16A30.93,30.93,0,0,1,307.07,421.44Zm-.19-3.36a3.27,3.27,0,0,0-1.34.24,1.56,1.56,0,0,0-.91,1.1,1,1,0,0,0,.2,1c1.2,1.16,6.09.15,8.48-.49C312.09,419.4,309,418.08,306.88,418.08Z" style="fill: rgb(64, 123, 255); transform-origin: 309.328px 419.547px;" id="elxmdeeh054m" class="animable"></path><path d="M324.66,410.08l-8.9,5a2.5,2.5,0,0,0-1.17,1.42,21,21,0,0,1-4.08,7.33c-3,3.17-6.54,4.89-6.05,6.08a3.69,3.69,0,0,0,4.05,2.13c1.57-.3,16.89-9,23.34-12.66a2.56,2.56,0,0,0,.57-4l-4.65-4.87A2.58,2.58,0,0,0,324.66,410.08Z" style="fill: rgb(34, 34, 33); transform-origin: 318.776px 420.923px;" id="elxvev9v0zpfr" class="animable"></path><polygon points="298.9 404.93 305.31 410.49 322.68 399.23 317.93 392.25 298.9 404.93" style="fill: rgb(64, 123, 255); transform-origin: 310.79px 401.37px;" id="el8n1b2ss0gx" class="animable"></polygon><path d="M259.28,152c.55-.31,12-.83,23,1.48s-8.6,15.84-8.6,15.84l-6.14,24.58-11.25.1-1.36-34.9Z" style="fill: rgb(235, 235, 235); transform-origin: 270.281px 172.861px;" id="el8rb230uckxc" class="animable"></path><path d="M282.27,153.51l-23.86,37.65,2.64-39.48s-8.67.22-11.36,1-5,7.06-6.93,15.66-4.86,29.22-4.86,29.22l-13.71,115s46.87,10,68.95,2.23c0,0-8.3-103.29-6.93-109.67s5.8-29.72,5.8-29.72,6.14-11.65,3.47-15.08S282.27,153.51,282.27,153.51Z" style="fill: rgb(64, 123, 255); transform-origin: 260.171px 234.713px;" id="el5hrfavs046k" class="animable"></path><line x1="254.14" y1="225.95" x2="257.54" y2="317.21" style="fill: none; stroke: rgb(255, 255, 255); stroke-linecap: round; stroke-linejoin: round; stroke-width: 0.75px; transform-origin: 255.84px 271.58px;" id="el6qwwilyprcb" class="animable"></line><g id="elog98famf5ch"><rect x="176.6" y="167.01" width="87.39" height="64.58" style="fill: rgb(64, 123, 255); transform-origin: 220.295px 199.3px; transform: rotate(-18.82deg);" class="animable"></rect></g><polygon points="251.24 154.64 189.35 243.96 177.73 238.69 156.9 177.57 239.62 149.38 251.24 154.64" style="fill: rgb(64, 123, 255); transform-origin: 204.07px 196.67px;" id="el466bu9xhshx" class="animable"></polygon><g id="elbodxgvwlvo"><polygon points="251.24 154.64 168.52 182.83 189.35 243.96 177.73 238.69 156.9 177.57 239.62 149.38 251.24 154.64" style="fill: rgb(255, 255, 255); opacity: 0.7; transform-origin: 204.07px 196.67px;" class="animable"></polygon></g><g id="el8pke8m0h8v8"><rect x="176.6" y="167.01" width="87.39" height="64.58" style="fill: rgb(255, 255, 255); opacity: 0.46; transform-origin: 220.295px 199.3px; transform: rotate(-18.82deg);" class="animable"></rect></g><g id="el0hlrthefskam"><circle cx="220.29" cy="199.3" r="23.45" style="fill: rgb(250, 250, 250); transform-origin: 220.29px 199.3px; transform: rotate(-39.2894deg);" class="animable"></circle></g><polygon points="232.78 191.24 223.27 194.35 220.21 185.01 212.86 187.42 215.92 196.76 205.46 200.18 207.83 207.45 218.3 204.02 221.33 213.28 228.68 210.87 225.65 201.61 235.16 198.5 232.78 191.24" style="fill: rgb(64, 123, 255); transform-origin: 220.31px 199.145px;" id="elogggwkoojxf" class="animable"></polygon><path d="M261,103.14V88.59s15.93-7.17,31.16,7.47l-7,14.12Z" style="fill: rgb(64, 123, 255); transform-origin: 276.58px 98.5072px;" id="eleki81jbbxy7" class="animable"></path><g id="elspuz87q5hld"><rect x="273.94" y="90.47" width="1.84" height="5.63" style="fill: rgb(255, 255, 255); transform-origin: 274.86px 93.285px; transform: rotate(11.17deg);" class="animable"></rect></g><g id="eluxnqr763k8"><rect x="273.94" y="90.47" width="1.84" height="5.63" style="fill: rgb(255, 255, 255); transform-origin: 274.86px 93.285px; transform: rotate(-78.83deg);" class="animable"></rect></g><path d="M284,130c-2.91,4.19-5.58,3.61-5.58,3.61a16,16,0,0,1-3.37,4.23c-.48,13.07,3.37,16.6,3.37,16.6-4,6.17-8.94,6-13.94,4.2s-5.26-5.72-5.26-5.72c4.52-2.22,4.58-5.7,3.93-8.08a10.5,10.5,0,0,0-1.14-2.62c-8.49-2.33-10.94-10.47-10.36-18.15a41.51,41.51,0,0,1,3.38-13.5l5-7.57,19.55,4,1.05,10.36-4,7.68C283.68,119.83,286.94,125.76,284,130Z" style="fill: rgb(181, 91, 82); transform-origin: 268.325px 131.365px;" id="elnvd63vsyar9" class="animable"></path><path d="M261,129.9a9.4,9.4,0,0,1-1.42-.1.35.35,0,1,1,.12-.69s5,.87,7.15-2.83a.35.35,0,1,1,.61.35C265.81,129.45,262.76,129.9,261,129.9Z" style="fill: rgb(38, 50, 56); transform-origin: 263.398px 128.002px;" id="el2ylrph9nbc5" class="animable"></path><path d="M259.63,125.33c.21,0,1.06-6.38,1.06-6.38l-4.54,5.46A4,4,0,0,0,259.63,125.33Z" style="fill: rgb(160, 39, 36); transform-origin: 258.42px 122.183px;" id="el4jrchst2j6p" class="animable"></path><path d="M266.66,119.08c-.11.79-.6,1.38-1.09,1.31s-.8-.77-.69-1.56.6-1.39,1.09-1.32S266.77,118.28,266.66,119.08Z" style="fill: rgb(38, 50, 56); transform-origin: 265.77px 118.95px;" id="elvuyx4kxf" class="animable"></path><path d="M257,118.2c-.11.79-.6,1.38-1.09,1.31s-.8-.76-.69-1.56.6-1.38,1.09-1.31S257.16,117.4,257,118.2Z" style="fill: rgb(38, 50, 56); transform-origin: 256.118px 118.075px;" id="el91r0uzuobh4" class="animable"></path><path d="M270.58,115.5a.47.47,0,0,1-.42-.27c-1.19-2.53-2.87-2.2-2.94-2.19a.47.47,0,0,1-.22-.91c.1,0,2.48-.56,4,2.7a.47.47,0,0,1-.23.63A.45.45,0,0,1,270.58,115.5Z" style="fill: rgb(38, 50, 56); transform-origin: 268.863px 113.797px;" id="el01pgmesfmkaz" class="animable"></path><path d="M253.93,113.82a.45.45,0,0,1-.32-.13.46.46,0,0,1,0-.66c.12-.12,2.8-2.86,6.18-1.51a.47.47,0,0,1,.27.61.48.48,0,0,1-.62.26c-2.81-1.12-5.12,1.26-5.15,1.29A.44.44,0,0,1,253.93,113.82Z" style="fill: rgb(38, 50, 56); transform-origin: 256.781px 112.484px;" id="ely8wyxf4zcea" class="animable"></path><g id="elj1iv52w2ta"><path d="M266.37,141.69a8.85,8.85,0,0,1-3.19,3.1,10.5,10.5,0,0,0-1.14-2.62A10.62,10.62,0,0,0,266.37,141.69Z" style="opacity: 0.2; transform-origin: 264.205px 143.24px;" class="animable"></path></g><path d="M278.65,107.88s-16.87,4.51-23.59,2.12-4.37-10.65-3.46-11.43c1.24-1.06,3.94,3.32,3.94,3.32s-2.21-4.69-.48-5.72,2,6,8.3,5.26,23.76-5.49,24.79,5.49a39,39,0,0,1-3.09,19.26s-.93-6-8.36-1.23c0,0-2.47-1.76,0-4.18C281,116.58,279.5,111.07,278.65,107.88Z" style="fill: rgb(38, 50, 56); transform-origin: 269.387px 111.123px;" id="elcpd0z40kdne" class="animable"></path><path d="M276.86,107s-2.93,9.58,2.46,9.12,2.08-10.46,2.08-10.46Z" style="fill: rgb(38, 50, 56); transform-origin: 279.235px 110.898px;" id="elh6kjb916c9b" class="animable"></path><path d="M262.69,102s-3.52-2.59-2.62-4.47,2.3,2.66,9.31,1.83,15.33-1.46,16.87,3.19-14,1.11-14,1.11l-9.58,2.06Z" style="fill: rgb(38, 50, 56); transform-origin: 273.14px 101.395px;" id="el1rbf6rdsfki" class="animable"></path><path d="M261.47,216.46l-6.77-1.91s-8-.49-8.67,2.56-1,8.31,2.18,8.73,13.08-.2,13.08-.2Z" style="fill: rgb(181, 91, 82); transform-origin: 253.528px 220.253px;" id="el0hcz9nutqi98" class="animable"></path><path d="M284.57,170l10.91-9.74s13.51,30,14.27,41.53-8.15,16.71-15.7,18.65-32.57,7.11-32.57,7.11l-1.35-13.92s26.65-4.55,36.91-9.26C297,204.4,287.77,177.55,284.57,170Z" style="fill: rgb(64, 123, 255); transform-origin: 284.963px 193.905px;" id="elyjysqj0skg" class="animable"></path><g id="elqgx3d8ivfai"><polygon points="261.48 227.58 286.7 222.19 286.77 225.99 261.48 227.58" style="opacity: 0.1; transform-origin: 274.125px 224.885px;" class="animable"></polygon></g><path d="M264.5,158.59l2.87,7.58a81.3,81.3,0,0,0,12.52-11.41l-4.16-6.93S271.92,155.41,264.5,158.59Z" style="fill: rgb(250, 250, 250); transform-origin: 272.195px 157px;" id="el9e1hj79j5n6" class="animable"></path><path d="M262.4,150.3a19.65,19.65,0,0,0,2.1,8.29l-3.13,7a15.21,15.21,0,0,1-4.3-12.31Z" style="fill: rgb(250, 250, 250); transform-origin: 260.742px 157.945px;" id="elmvbjjk4mizb" class="animable"></path></g><defs>     <filter id="active" height="200%">         <feMorphology in="SourceAlpha" result="DILATED" operator="dilate" radius="2"></feMorphology>                <feFlood flood-color="#32DFEC" flood-opacity="1" result="PINK"></feFlood>        <feComposite in="PINK" in2="DILATED" operator="in" result="OUTLINE"></feComposite>        <feMerge>            <feMergeNode in="OUTLINE"></feMergeNode>            <feMergeNode in="SourceGraphic"></feMergeNode>        </feMerge>    </filter>    <filter id="hover" height="200%">        <feMorphology in="SourceAlpha" result="DILATED" operator="dilate" radius="2"></feMorphology>                <feFlood flood-color="#ff0000" flood-opacity="0.5" result="PINK"></feFlood>        <feComposite in="PINK" in2="DILATED" operator="in" result="OUTLINE"></feComposite>        <feMerge>            <feMergeNode in="OUTLINE"></feMergeNode>            <feMergeNode in="SourceGraphic"></feMergeNode>        </feMerge>            <feColorMatrix type="matrix" values="0   0   0   0   0                0   1   0   0   0                0   0   0   0   0                0   0   0   1   0 "></feColorMatrix>    </filter></defs></svg>