<?xml version="1.0" encoding="UTF-8"?><svg version="1.1" xmlns="http://www.w3.org/2000/svg" xmlns:xlink="http://www.w3.org/1999/xlink" viewBox="0 0 1500 1500" width="1500" height="1500" x="0px" y="0px">
              
              <!-- ITEM 0 -->
<g>
    <defs>
        
        <clipPath id="clip-path-id-viewbox-item-0">
            <rect x="0.0" y="0.0" width="300.0" height="202.0"/>
        </clipPath>
    </defs>
    <g transform="translate(1306.0 99.0) rotate(0.0 -557.0 375.0) scale(-3.7133333333333334 3.712871287128713)">
        <g clip-path="url(#clip-path-id-viewbox-item-0)" transform="translate(-0.0 -0.0)">

<g>
	<path fill="#151A4F" d="M299.664,110.28l-0.043-0.055c-0.005,0.035-0.013,0.067-0.018,0.099L299.664,110.28z"/>
	<path fill="#151A4F" d="M273.174,161.199c0.323-0.319,0.643-0.639,0.961-0.961l-1.069,0.82L273.174,161.199z"/>
	<path fill="#151A4F" d="M255.571,174.451l0.215,0.279c2.29-1.378,4.499-2.864,6.646-4.421l-0.537-0.698L255.571,174.451z"/>
	<path fill="#151A4F" d="M293.455,131.391c1.041-2.44,1.963-4.937,2.794-7.469l-5.372,4.113L293.455,131.391z"/>
	<polygon fill="#151A4F" points="278.249,147.729 273.399,141.416 279.724,136.577 284.574,142.889  "/>
	<polygon fill="#151A4F" points="260.757,161.123 255.907,154.81 262.232,149.971 267.082,156.283  "/>
	<polygon fill="#151A4F" points="243.265,174.519 238.415,168.207 244.74,163.367 249.59,169.68  "/>
	<path fill="#151A4F" d="M228.752,185.629l3.322-2.543l-4.85-6.311l-6.322,4.841l3.747,4.876c0.326-0.061,0.649-0.103,0.976-0.165   C226.677,186.118,227.714,185.869,228.752,185.629z"/>
	<path fill="#151A4F" d="M288.489,108.811l4.85,6.311l6.263-4.795c0.005-0.033,0.013-0.067,0.018-0.099l-4.807-6.257   L288.489,108.811z"/>
	<polygon fill="#151A4F" points="277.304,117.377 282.154,123.69 275.829,128.529 270.979,122.217  "/>
	<polygon fill="#151A4F" points="259.808,130.771 264.658,137.083 258.333,141.923 253.483,135.61  "/>
	<polygon fill="#151A4F" points="242.315,144.166 247.165,150.478 240.84,155.318 235.99,149.005  "/>
	<polygon fill="#151A4F" points="224.821,157.559 229.671,163.871 223.347,168.71 218.496,162.398  "/>
	<polygon fill="#151A4F" points="293.675,95.482 288.825,89.169 295.15,84.33 300,90.643  "/>
	<polygon fill="#151A4F" points="276.179,108.877 271.329,102.565 277.654,97.726 282.504,104.038  "/>
	<polygon fill="#151A4F" points="258.682,122.271 253.831,115.959 260.156,111.12 265.006,117.432  "/>
	<polygon fill="#151A4F" points="241.192,135.667 236.342,129.355 242.666,124.515 247.517,130.828  "/>
	<polygon fill="#151A4F" points="223.703,149.062 218.853,142.75 225.177,137.911 230.028,144.223  "/>
	<polygon fill="#151A4F" points="206.209,162.458 201.358,156.146 207.683,151.306 212.534,157.619  "/>
	<polygon fill="#151A4F" points="292.732,65.133 297.582,71.446 291.257,76.285 286.407,69.973  "/>
	<polygon fill="#151A4F" points="275.236,78.525 280.086,84.838 273.761,89.677 268.911,83.364  "/>
	<polygon fill="#151A4F" points="257.744,91.92 262.594,98.232 256.27,103.071 251.419,96.759  "/>
	<polygon fill="#151A4F" points="240.247,105.312 245.097,111.624 238.772,116.464 233.922,110.151  "/>
	<polygon fill="#151A4F" points="222.752,118.707 227.602,125.02 221.278,129.859 216.427,123.547  "/>
	<polygon fill="#151A4F" points="205.259,132.101 210.109,138.413 203.785,143.253 198.934,136.94  "/>
	<path fill="#151A4F" d="M291.591,56.644l0.712-0.546c-1.134-2.463-2.374-4.858-3.707-7.188l-1.858,1.422L291.591,56.644z"/>
	<polygon fill="#151A4F" points="274.111,70.024 269.26,63.712 275.585,58.872 280.435,65.185  "/>
	<polygon fill="#151A4F" points="256.616,83.419 251.766,77.107 258.091,72.267 262.941,78.58  "/>
	<polygon fill="#151A4F" points="239.123,96.816 234.273,90.504 240.598,85.664 245.448,91.977  "/>
	<polygon fill="#151A4F" points="221.63,110.211 216.78,103.899 223.104,99.06 227.955,105.372  "/>
	<polygon fill="#151A4F" points="204.138,123.605 199.287,117.293 205.612,112.454 210.462,118.766  "/>
	<polygon fill="#151A4F" points="186.645,137.001 181.795,130.689 188.119,125.849 192.97,132.162  "/>
	<polygon fill="#151A4F" points="273.171,39.674 278.021,45.986 271.696,50.826 266.846,44.513  "/>
	<polygon fill="#151A4F" points="254.229,64.194 249.379,57.881 255.704,53.042 260.554,59.354  "/>
	<polygon fill="#151A4F" points="236.739,77.591 231.888,71.279 238.213,66.439 243.064,72.752  "/>
	<polygon fill="#151A4F" points="220.685,79.853 225.535,86.166 219.21,91.005 214.36,84.693  "/>
	<polygon fill="#151A4F" points="203.192,93.249 208.042,99.562 201.718,104.401 196.867,98.088  "/>
	<polygon fill="#151A4F" points="185.697,106.641 190.547,112.954 184.222,117.793 179.372,111.481  "/>
	<path fill="#151A4F" d="M272.239,27.977c-1.841-1.764-3.738-3.461-5.714-5.066l4.566,5.942L272.239,27.977z"/>
	<polygon fill="#151A4F" points="255.057,31.109 259.907,37.422 253.583,42.261 248.732,35.949  "/>
	<polygon fill="#151A4F" points="236.118,55.632 231.267,49.32 237.592,44.48 242.442,50.793  "/>
	<polygon fill="#151A4F" points="220.071,57.897 224.921,64.209 218.597,69.048 213.746,62.736  "/>
	<polygon fill="#151A4F" points="202.577,71.291 207.427,77.604 201.103,82.443 196.252,76.131  "/>
	<polygon fill="#151A4F" points="185.084,84.684 189.934,90.996 183.609,95.836 178.759,89.523  "/>
	<polygon fill="#151A4F" points="166.146,109.213 161.295,102.901 167.62,98.062 172.471,104.374  "/>
	<path fill="#151A4F" d="M251.212,23.024l6.322-4.841l-2.492-3.243c-1.209-0.713-2.432-1.403-3.673-2.061l-5.007,3.835   L251.212,23.024z"/>
	<polygon fill="#151A4F" points="235.179,25.277 240.03,31.589 233.705,36.428 228.855,30.116  "/>
	<polygon fill="#151A4F" points="217.685,38.67 222.535,44.983 216.21,49.822 211.36,43.51  "/>
	<polygon fill="#151A4F" points="200.191,52.065 205.041,58.377 198.716,63.217 193.866,56.904  "/>
	<polygon fill="#151A4F" points="182.697,65.459 187.547,71.771 181.222,76.61 176.372,70.298  "/>
	<polygon fill="#151A4F" points="165.202,78.852 170.052,85.164 163.727,90.004 158.877,83.691  "/>
	<path fill="#151A4F" d="M234.037,16.792l6.322-4.841l-4.233-5.509c-0.394-0.126-0.784-0.253-1.18-0.373l-5.761,4.41L234.037,16.792   z"/>
	<polygon fill="#151A4F" points="218.005,19.046 222.855,25.358 216.53,30.198 211.68,23.885  "/>
	<polygon fill="#151A4F" points="199.063,43.571 194.213,37.258 200.537,32.419 205.388,38.732  "/>
	<polygon fill="#151A4F" points="181.569,56.965 176.718,50.653 183.043,45.814 187.894,52.126  "/>
	<polygon fill="#151A4F" points="164.078,70.363 159.228,64.051 165.553,59.211 170.403,65.524  "/>
	<polygon fill="#151A4F" points="146.583,83.758 141.732,77.445 148.057,72.606 152.908,78.919  "/>
	<path fill="#151A4F" d="M214.155,10.961l6.322-4.841l-2.768-3.602c-1.69-0.183-3.392-0.307-5.101-0.398l-3.305,2.53L214.155,10.961   z"/>
	<polygon fill="#151A4F" points="198.125,13.212 202.975,19.524 196.651,24.364 191.8,18.051  "/>
	<polygon fill="#151A4F" points="180.629,26.606 185.48,32.919 179.155,37.758 174.304,31.446  "/>
	<polygon fill="#151A4F" points="163.137,40 167.987,46.312 161.662,51.151 156.812,44.839  "/>
	<polygon fill="#151A4F" points="145.641,53.392 150.492,59.705 144.167,64.544 139.316,58.232  "/>
	<path fill="#151A4F" d="M200.136,2.314c-1.541,0.126-3.083,0.293-4.628,0.497l1.474,1.919L200.136,2.314z"/>
	<polygon fill="#151A4F" points="180.949,6.981 185.799,13.293 179.474,18.133 174.624,11.82  "/>
	<polygon fill="#151A4F" points="163.455,20.374 168.306,26.686 161.981,31.526 157.13,25.213  "/>
	<polygon fill="#151A4F" points="145.959,33.767 150.81,40.08 144.485,44.919 139.634,38.607  "/>
	<path fill="#151A4F" d="M133.329,53.467l-4.851-6.313l-1.293,0.989c-1.169,1.998-2.272,4.032-3.292,6.114l3.111,4.05   L133.329,53.467z"/>
</g>
<polygon fill="#428DFC" points="129.951,185.974 17.069,202 0,82.198 112.883,66.172 "/>
<g>
	<polygon fill="#A1C3FC" points="88.562,0 78.641,5.077 91.167,5.077  "/>
	<polygon fill="#A1C3FC" points="43.943,22.827 100.281,22.827 95.484,13.485 62.204,13.485  "/>
	<polygon fill="#A1C3FC" points="9.244,40.578 109.395,40.578 104.597,31.236 27.507,31.236  "/>
	<polygon fill="#A1C3FC" points="13.94,58.329 118.508,58.329 113.712,48.986 9.143,48.986  "/>
	<polygon fill="#A1C3FC" points="23.053,76.08 127.622,76.08 122.826,66.738 18.256,66.738  "/>
	<polygon fill="#A1C3FC" points="32.166,93.833 107.365,93.833 125.627,84.488 27.369,84.488  "/>
	<polygon fill="#A1C3FC" points="41.28,111.583 72.666,111.583 90.928,102.24 36.484,102.24  "/>
	<polygon fill="#A1C3FC" points="47.809,124.3 56.231,119.991 45.597,119.991  "/>
</g>

        </g>
    </g>
</g>

<!-- ITEM 1 -->
<g>
    <defs>
        
        <clipPath id="clip-path-id-viewbox-item-1">
            <rect x="-387.018" y="16.148" width="40.261" height="17.716"/>
        </clipPath>
    </defs>
    <g transform="translate(886.0 967.0) rotate(339.5619404446513 156.5 70.5) scale(7.77427286952634 7.9589072025287875)">
        <g clip-path="url(#clip-path-id-viewbox-item-1)" transform="translate(387.018 -16.148)">

<g>
	<g>
		<g>
			<path fill="#D6D7D8" d="M-346.757,31.814l-7.777-2.781c0.201-1.513-0.669-3.012-2.164-3.547l-25.574-9.144     c-1.72-0.615-3.614,0.281-4.229,2.001l-0.323,0.902c-0.615,1.72,0.281,3.613,2.001,4.229l25.574,9.144     c1.552,0.555,3.235-0.127,4.003-1.527l7.755,2.773L-346.757,31.814z"/>
		</g>
	</g>
	<g>
		
			<rect x="-381.013" y="17.162" transform="matrix(-0.9415 -0.337 0.337 -0.9415 -745.5771 -88.9981)" fill="#23286B" width="1" height="6.094"/>
	</g>
	<g>
		
			<rect x="-377.57" y="18.393" transform="matrix(-0.9415 -0.337 0.337 -0.9415 -739.3073 -85.4484)" fill="#23286B" width="1" height="6.093"/>
	</g>
	<g>
		
			<rect x="-374.127" y="19.624" transform="matrix(-0.9415 -0.337 0.337 -0.9415 -733.0385 -81.897)" fill="#23286B" width="1" height="6.094"/>
	</g>
	<g>
		
			<rect x="-370.685" y="20.855" transform="matrix(-0.9415 -0.337 0.337 -0.9415 -726.7709 -78.347)" fill="#23286B" width="1" height="6.094"/>
	</g>
	<g>
		
			<rect x="-367.242" y="22.086" transform="matrix(-0.9415 -0.337 0.337 -0.9415 -720.501 -74.7972)" fill="#23286B" width="1" height="6.093"/>
	</g>
	<g>
		
			<rect x="-363.799" y="23.317" transform="matrix(-0.9415 -0.337 0.337 -0.9415 -714.2321 -71.2458)" fill="#23286B" width="1" height="6.094"/>
	</g>
	<g>
		
			<rect x="-360.357" y="24.548" transform="matrix(-0.9415 -0.337 0.337 -0.9415 -707.9645 -67.696)" fill="#23286B" width="1" height="6.094"/>
	</g>
</g>

        </g>
    </g>
</g>

<!-- ITEM 2 -->
<g>
    <defs>
        
        <clipPath id="clip-path-id-viewbox-item-2">
            <rect x="0.0" y="0.0" width="263.0" height="400.0"/>
        </clipPath>
    </defs>
    <g transform="translate(908.0 493.0) rotate(0.0 166.0 252.0) scale(1.2623574144486691 1.26)">
        <g clip-path="url(#clip-path-id-viewbox-item-2)" transform="translate(-0.0 -0.0)">

<g>
	<path fill="#151A4F" d="M188.316,124.722c-7.009-8.022-8.53-33.622-8.054-40.657c1.068-15.804,1.887-32.591-0.783-48.807   c-1.578-9.586-6.275-26.387-19.998-31.201c-14.13-4.955-28.704,5.934-36.894,16.765c-25.732,34.031-21.115,78.785-16.073,102.432   l-2.758,0.59c-4.027-18.888-5.005-37.806-2.829-54.71c2.508-19.472,9.039-36.301,19.411-50.018   c8.764-11.587,24.519-23.182,40.076-17.725c15.098,5.296,20.169,23.204,21.849,33.407c2.719,16.514,1.893,33.488,0.814,49.458   c-0.549,8.129,1.351,31.725,7.363,38.606L188.316,124.722z"/>
</g>
<path fill="#A1C3FC" d="M17.118,83.427v300.574h244.976V83.427H17.118z M99.8,120.927c-3.373,0-6.107-2.742-6.107-6.124  s2.734-6.124,6.107-6.124s6.108,2.742,6.108,6.124S103.173,120.927,99.8,120.927z M180.388,120.927  c-3.373,0-6.107-2.742-6.107-6.124s2.734-6.124,6.107-6.124c3.373,0,6.107,2.742,6.107,6.124S183.761,120.927,180.388,120.927z"/>
<polygon fill="#D6D7D8" points="14.782,380.135 31.421,388.125 40.083,88.411 17.253,83.601 "/>
<polygon fill="#D6D7D8" points="238.726,389.381 263,384.244 262.316,83.617 220.605,90.465 "/>
<polygon fill="#428DFC" points="0.422,399.995 33.245,383.103 40.083,88.411 0.422,100.053 "/>
<polygon fill="#428DFC" points="244.967,399.995 235.943,351.602 220.605,90.465 244.967,100.053 "/>
<linearGradient id="SVGID_1_-i2" gradientUnits="userSpaceOnUse" x1="4899.5444" y1="4959.1563" x2="1687.3972" y2="5107.6226" gradientTransform="matrix(0.0762 0 0 0.0762 -183.8362 -131.081)">
	<stop offset="0" style="stop-color:#EEEEEE"/>
	<stop offset="1" style="stop-color:#D6D7D8"/>
</linearGradient>
<path fill="url(#SVGID_1_-i2)" d="M0,99.808v300.192h244.976V99.808H0z M83.037,137.548c-3.377,0-6.115-2.742-6.115-6.124  s2.738-6.124,6.115-6.124s6.115,2.742,6.115,6.124C89.153,134.806,86.415,137.548,83.037,137.548z M163.726,137.548  c-3.377,0-6.115-2.742-6.115-6.124s2.738-6.124,6.115-6.124c3.377,0,6.115,2.742,6.115,6.124S167.103,137.548,163.726,137.548z"/>
<g>
	<path fill="#D6D7D8" d="M91.235,131.808H87.85c0-3.048-2.257-5.039-5.032-5.039c-2.774,0-5.031,1.991-5.031,5.039h-3.385   c0-5.334,3.775-8.429,8.417-8.429C87.46,123.379,91.235,126.475,91.235,131.808z"/>
</g>
<g>
	<path fill="#D6D7D8" d="M171.924,131.808h-3.385c0-3.048-2.257-5.039-5.031-5.039c-2.774,0-5.032,1.991-5.032,5.039h-3.385   c0-5.334,3.775-8.429,8.417-8.429C168.148,123.379,171.924,126.475,171.924,131.808z"/>
</g>
<g>
	<path fill="#151A4F" d="M167.118,137.048c-7.009-8.022-8.53-33.622-8.054-40.658c1.067-15.805,1.886-32.593-0.783-48.807   c-1.579-9.586-6.276-26.387-19.999-31.201c-14.126-4.954-28.704,5.933-36.893,16.765C75.657,67.178,80.838,114.192,85.88,137.84   l-2.758,0.59c-4.027-18.888-5.57-40.067-3.392-56.97c2.508-19.472,9.039-36.301,19.411-50.018   c8.763-11.588,24.515-23.182,40.075-17.725c15.097,5.296,20.169,23.204,21.849,33.407c2.718,16.513,1.892,33.487,0.814,49.457   c-0.549,8.13,1.351,31.725,7.362,38.607L167.118,137.048z"/>
</g>
<g>
	<path fill="#D6D7D8" d="M82.82,140.237c-4.641,0-8.417-4.238-8.417-8.429h3.385c0,2.666,2.257,5.039,5.032,5.039   c2.774,0,5.031-2.373,5.031-5.039h3.385C91.235,135.999,87.46,140.237,82.82,140.237z"/>
</g>
<g>
	<path fill="#D6D7D8" d="M163.507,140.237c-4.641,0-8.417-4.238-8.417-8.429h3.385c0,2.666,2.257,5.039,5.032,5.039   c2.774,0,5.031-2.373,5.031-5.039h3.385C171.924,135.999,168.148,140.237,163.507,140.237z"/>
</g>

        </g>
    </g>
</g>

<!-- ITEM 3 -->
<g>
    <defs>
        
        <clipPath id="clip-path-id-viewbox-item-3">
            <rect x="0.0" y="0.0" width="200.0" height="400.0"/>
        </clipPath>
    </defs>
    <g transform="translate(525.0 214.0) rotate(0.0 233.5 466.0) scale(2.335 2.33)">
        <g clip-path="url(#clip-path-id-viewbox-item-3)" transform="translate(-0.0 -0.0)">

<path fill="#C1D7FD" d="M170.483,400H29.06c-14.49,0-26.237-11.621-26.237-25.953V25.954c0-14.334,11.746-25.953,26.237-25.953  h141.422c14.49,0,26.237,11.62,26.237,25.953v348.094C196.72,388.38,184.972,400,170.483,400z"/>
<ellipse fill="#A1C3FC" cx="71.914" cy="25.119" rx="4.591" ry="4.541"/>
<path fill="#A1C3FC" d="M170.483,0h-27.148c-1.392,0.857-2.761,1.736-4.101,2.624c-35.569,23.556-66.161,56.908-78.064,97.58  c-4.799,16.394-6.46,33.511-10.109,50.193c-8.351,38.196-26.96,73.455-48.236,106.401v117.248c0,14.334,11.746,25.953,26.237,25.953  h141.422c14.49,0,26.237-11.621,26.237-25.953V25.954C196.72,11.62,184.972,0,170.483,0z"/>
<linearGradient id="SVGID_1_-i3" gradientUnits="userSpaceOnUse" x1="2826.748" y1="-3296.2417" x2="3018.2227" y2="-3296.2417" gradientTransform="matrix(0.1702 0 0 -0.1702 -396.2191 -184.383)">
	<stop offset="0" style="stop-color:#A1C3FC"/>
	<stop offset="1" style="stop-color:#8AB8FD"/>
</linearGradient>
<ellipse fill="url(#SVGID_1_-i3)" cx="101.188" cy="376.637" rx="16.295" ry="16.118"/>
<polygon fill="#A1C3FC" points="84.382,23.78 117.041,19.749 117.742,25.305 85.082,29.335 "/>
<rect x="10.503" y="45.282" fill="#FFFFFF" width="178.538" height="309.834"/>
<ellipse fill="#C1D7FD" cx="99.268" cy="374.738" rx="12.454" ry="12.32"/>
<g>
	<path fill="#428DFC" d="M113.05,24.848H86.213c-0.531,0-0.96-0.425-0.96-0.949c0-0.524,0.429-0.949,0.96-0.949h26.837   c0.531,0,0.96,0.425,0.96,0.949C114.01,24.423,113.58,24.848,113.05,24.848z"/>
</g>
<ellipse fill="#428DFC" cx="72.028" cy="24.567" rx="3.15" ry="3.116"/>
<rect x="0" y="46.176" fill="#D62929" width="3.225" height="13.757"/>
<rect x="0" y="76.483" fill="#D62929" width="3.225" height="24.725"/>
<rect x="196.775" y="76.483" fill="#D62929" width="3.225" height="24.725"/>
<rect x="0" y="108.783" fill="#D62929" width="3.225" height="24.725"/>
<polygon fill="#FFFFFF" points="68.426,18.107 72.874,22.86 68.069,27.261 63.621,22.508 "/>
<polygon fill="#A1C3FC" points="65.274,18.622 68.419,21.982 65.022,25.093 61.877,21.733 "/>

        </g>
    </g>
</g>

<!-- ITEM 4 -->
<g>
    <defs>
        
        <clipPath id="clip-path-id-viewbox-item-4">
            <rect x="0.0" y="0.0" width="220.0" height="235.0"/>
        </clipPath>
    </defs>
    <g transform="translate(639.0 542.0) rotate(0.0 119.0 126.5) scale(1.0818181818181818 1.0765957446808512)">
        <g clip-path="url(#clip-path-id-viewbox-item-4)" transform="translate(-0.0 -0.0)">

<g>
	
		<linearGradient id="SVGID_1_-i4" gradientUnits="userSpaceOnUse" x1="-4640.5869" y1="72.7126" x2="-4526.0327" y2="72.7126" gradientTransform="matrix(-1 0 0 1 -4420.5869 0)">
		<stop offset="0" style="stop-color:#E94A47"/>
		<stop offset="1" style="stop-color:#D62929"/>
	</linearGradient>
	<polygon fill="url(#SVGID_1_-i4)" points="220,139.598 191.123,139.598 191.123,33.164 160.646,33.164 160.646,11.034 105.446,11.034    105.446,5.828 165.851,5.828 165.851,27.958 196.328,27.958 196.328,134.393 220,134.393  "/>
</g>
<g>
	<linearGradient id="SVGID_2_-i4" gradientUnits="userSpaceOnUse" x1="0" y1="72.7126" x2="114.5547" y2="72.7126">
		<stop offset="0" style="stop-color:#E94A47"/>
		<stop offset="1" style="stop-color:#D62929"/>
	</linearGradient>
	<polygon fill="url(#SVGID_2_-i4)" points="28.877,139.598 0,139.598 0,134.393 23.671,134.393 23.671,27.958 54.148,27.958    54.148,5.828 114.555,5.828 114.555,11.034 59.354,11.034 59.354,33.164 28.877,33.164  "/>
</g>
<linearGradient id="SVGID_3_-i4" gradientUnits="userSpaceOnUse" x1="17.3681" y1="181.7824" x2="203.333" y2="181.7824">
	<stop offset="0" style="stop-color:#23286B"/>
	<stop offset="1" style="stop-color:#151A4F"/>
</linearGradient>
<path fill="url(#SVGID_3_-i4)" d="M17.427,131.044l25.287,102.435c0.22,0.893,1.022,1.521,1.942,1.521h131.39  c0.92,0,1.721-0.628,1.942-1.521l25.287-102.435c0.311-1.261-0.643-2.479-1.942-2.479H19.369  C18.07,128.565,17.116,129.783,17.427,131.044z M81.759,218.139H62.956c-1.105,0-2-0.895-2-2v-27.094c0-1.105,0.895-2,2-2h18.804  c1.105,0,2,0.895,2,2v27.094C83.759,217.243,82.864,218.139,81.759,218.139z M81.759,174.413H62.956c-1.105,0-2-0.895-2-2v-27.094  c0-1.105,0.895-2,2-2h18.804c1.105,0,2,0.895,2,2v27.094C83.759,173.517,82.864,174.413,81.759,174.413z M118.701,218.139H99.898  c-1.105,0-2-0.895-2-2v-27.094c0-1.105,0.895-2,2-2h18.804c1.105,0,2,0.895,2,2v27.094  C120.701,217.243,119.806,218.139,118.701,218.139z M118.701,174.413H99.898c-1.105,0-2-0.895-2-2v-27.094c0-1.105,0.895-2,2-2  h18.804c1.105,0,2,0.895,2,2v27.094C120.701,173.517,119.806,174.413,118.701,174.413z M155.644,218.139H136.84  c-1.105,0-2-0.895-2-2v-27.094c0-1.105,0.895-2,2-2h18.804c1.105,0,2,0.895,2,2v27.094  C157.644,217.243,156.748,218.139,155.644,218.139z M155.644,174.413H136.84c-1.105,0-2-0.895-2-2v-27.094c0-1.105,0.895-2,2-2  h18.804c1.105,0,2,0.895,2,2v27.094C157.644,173.517,156.748,174.413,155.644,174.413z"/>
<linearGradient id="SVGID_4_-i4" gradientUnits="userSpaceOnUse" x1="70.4141" y1="7.9036" x2="150.2869" y2="7.9036">
	<stop offset="0" style="stop-color:#E94A47"/>
	<stop offset="1" style="stop-color:#D62929"/>
</linearGradient>
<path fill="url(#SVGID_4_-i4)" d="M148.287,15.807H72.414c-1.105,0-2-0.895-2-2V2c0-1.105,0.895-2,2-2h75.873c1.105,0,2,0.895,2,2  v11.807C150.287,14.912,149.391,15.807,148.287,15.807z"/>

        </g>
    </g>
</g>

<!-- ITEM 5 -->
<g>
    <defs>
        
        <clipPath id="clip-path-id-viewbox-item-5">
            <rect x="0.0" y="0.0" width="204.0" height="500.0"/>
        </clipPath>
    </defs>
    <g transform="translate(602.0 583.0) rotate(0.0 -168.0 411.5) scale(-1.6470588235294117 1.646)">
        <g clip-path="url(#clip-path-id-viewbox-item-5)" transform="translate(-0.0 -0.0)">

<path fill="#FFBEB6" d="M25.377,56.755C35.908,71.692,49.54,84.43,65.155,93.924c2.137-12.879-6.221-25.209-15.856-34.017  S24.25,40.801,20.753,33.924c-4.75-9.341-9.39-21.596-15.652-31.183C3.415,0.16-1.079-1.267,0.238,1.519  C2.98,7.315,5.865,11.125,7.712,17.65c-0.7-0.815-2.154-0.096-2.473,0.93c-0.32,1.026-0.33,2.735-0.221,3.804  c0.546,5.382-2.916,8.56-1.049,13.639c1.622,4.412,6.743,6.078,10.957,8.16C20.016,46.698,22.105,52.113,25.377,56.755z"/>
<path fill="#E94A47" d="M86.069,196.836c1.209-4.873,3.28-9.482,5.34-14.06c1.011-2.247,2.022-4.493,3.033-6.74  c0.357-0.794,0.739-1.621,1.427-2.153c0.601-0.466,1.368-0.653,2.115-0.801c8.385-1.669,17.406,0.125,24.516,4.873  c-2.397,13.223-1.146,27.088,3.578,39.668c-12.689,5.391-26.335,8.52-40.107,9.194C84.803,216.835,83.648,206.593,86.069,196.836z"/>
<path fill="#D62929" d="M114.131,476.141c7.653-1.465,32.321-0.828,32.321-0.828s6.562,14.821,6.485,24.58  c-11.414,0.015-22.827,0.031-34.242,0.046c-19.182,0.026-23.72,0.206-43.974-0.206c-0.431-4.553,8.65-12.915,25.208-16.821  C103.587,482.049,110.437,476.846,114.131,476.141z"/>
<path fill="#151A4F" stroke="#000000" stroke-width="1.1158" stroke-miterlimit="10" d="M116.785,289.32  c-3.337-14.414-6.841-29.208-15.441-41.447c-0.897-1.276-2.014-2.621-3.599-2.849c-3.068-0.441-4.748,3.286-5.274,6.222  c-13.771,76.891,17.81,146.858,21.656,224.792c10.019,0.621,22.623,0.931,32.643,0.621c-2.731-16.146,4.315-20.288,3.556-36.63  c-0.692-14.888-6.278-20.215-7.434-35.077c-1.225-15.787,4.225-20.557,0.645-36.009C139.271,350.507,121.053,307.755,116.785,289.32  z"/>
<path fill="#FFBEB6" d="M169.071,195.633c-10.508,9.877-22.702,13.354-35.121,20.686c-6.384-0.219-5.534-0.681-8.188-2.586  c-3.303-2.37-2.688-6.612-3.318-10.63c-1.086-6.921-2.129-14.247,0.5-20.741c1.451,8.217,4.911,18.539,10.172,25.016  c12.332-10.817,25.498-23.307,39.149-32.404c0.188,6.478,0.376,12.957,0.563,19.435  C171.952,193.886,169.949,196.156,169.071,195.633z"/>
<path fill="#E94A47" d="M165.194,476.141c7.653-1.465,32.321-0.828,32.321-0.828s6.562,14.821,6.485,24.58  c-11.414,0.015-22.827,0.031-34.242,0.046c-19.182,0.026-23.72,0.206-43.974-0.206c-0.431-4.553,8.65-12.915,25.208-16.821  C154.65,482.049,161.5,476.846,165.194,476.141z"/>
<path fill="#428DFC" d="M163.668,177.518c-5.091-5.022-9.331-12.697-12.557-19.079c-5.656-11.187-11.449-23.954-7.344-35.798  c2.429-7.008,8.379-12.695,15.49-14.803c-0.531,11.033,3.253,21.771,7.108,32.124c5.477,14.707,10.442,26.18,16.425,40.687  c0.756,1.833,2,5.93,1.465,6.929c-2.318,4.347-4.559,7.644-8.38,8.471c-3.821,0.826-8.24,1.691-10.12,5.121  c-5.732-6.409-8.751-9.741-7.152-18.189C161.674,180.019,162.677,179.546,163.668,177.518z"/>
<linearGradient id="SVGID_1_-i5" gradientUnits="userSpaceOnUse" x1="1455.2886" y1="1616.8302" x2="1905.5323" y2="1616.8302" gradientTransform="matrix(0.1705 0 0 0.1705 -163.2512 -129.3091)">
	<stop offset="0" style="stop-color:#A1C3FC"/>
	<stop offset="1" style="stop-color:#81AEF2"/>
</linearGradient>
<path fill="url(#SVGID_1_-i5)" d="M157.207,124.226c-5.037,10.835-16.307,22.038-22.379,32.328  c-10.19,17.267-10.574,21.083-13.564,40.908c-12.141-0.852-25.787-2.678-36.388,2.269c6.361-28.979,13.148-47.643,20.36-65.561  s19.861-35.46,38.523-40.436c6.638-1.77,15.554-0.612,17.672,5.925C162.575,103.191,158.772,120.859,157.207,124.226z"/>
<path fill="#F2A19C" d="M143.862,95.165c2.908,4.04,11.473,3.879,13.251,1.293c-1.339-8.999,0.168-16.136,3.413-24.636  c-5.181,2.151-10.704,3.471-16.297,3.894C146.278,82.36,146.379,88.683,143.862,95.165z"/>
<path fill="#FFBEB6" d="M142.157,51.414c0.691,2.504-2.407,6.626-3.346,9.05c-2.153,5.552-1.421,12.961,3.709,15.985  c4.785,2.821,10.958,0.597,15.601-2.453c3.921-2.577,7.524-5.787,9.895-9.837c2.371-4.049,3.411-9.014,2.142-13.532  c-0.691-2.461-2.981-5.1-5.358-4.158c0.125-0.606-1.994-0.798-1.871-1.403c-4.738-0.846-7.572,0.025-11.339,3.021  c-2.31,1.836-3.139,2.882-5.953,1.989c-1.316-0.419-3.252-1.302-3.652,0.02C141.857,50.527,142.039,50.981,142.157,51.414z"/>
<path fill="#23286B" d="M174.603,49.393c-4.741-4.241-8.241-4.351-14.573-4.963c-0.191,6.441-4.576,11.853-7.964,17.335  s-5.856,12.752-2.306,18.13c1.944,2.945,5.463,4.853,6.548,8.211c0.926,2.867-0.201,5.943-0.459,8.946  c-0.847,9.894,3.556,19.969,11.225,26.277c0.497-5.196,6.852-7.582,12.071-7.496c5.218,0.086,10.818,1.368,15.401-1.128  c4.852-2.641-0.77-7.387,3.113-11.316c3.134-3.17-2.952-13.291-12.682-17.679c-4.774-2.153-5.232-12.771-4.035-17.871  C182.847,59.729,178.253,52.659,174.603,49.393z"/>
<linearGradient id="SVGID_2_-i5" gradientUnits="userSpaceOnUse" x1="1452.1256" y1="2744.5173" x2="2133.9141" y2="2744.5173" gradientTransform="matrix(0.1705 0 0 0.1705 -163.2512 -129.3091)">
	<stop offset="0" style="stop-color:#23286B"/>
	<stop offset="1" style="stop-color:#151A4F"/>
</linearGradient>
<path fill="url(#SVGID_2_-i5)" d="M138.59,273.088c-1.303-3.881-2.657-12.699-2.215-16.754c0.278-2.557,1.462-4.943,1.947-7.472  c1.003-5.226-1.033-10.501-3.034-15.455c-4.381-10.85-8.762-21.701-13.143-32.551c-12.747,0.825-25.408,2.879-37.731,6.121  c-1.955,96.552,33.192,184.203,80.708,269.309c7.846,0.597,24.281-1.248,32.127-0.651c1.001,0.076,6.526-16.617,0.707-35.298  c-1.992-6.396-11.898-19.473-14.135-25.795c-3.09-8.73-5.399-25.445-6.361-34.62c-2.362-22.504-17.655-25.479-22.553-47.601  C152.726,322.465,142.956,286.091,138.59,273.088z"/>
<g>
	<path fill="#23286B" d="M158.967,124.002c-0.093,0-0.189-0.023-0.276-0.075c-2.118-1.237-3.969-2.834-5.504-4.748   c-2.101-2.619-3.324-5.527-3.539-8.414c-0.205-2.771,0.514-5.477,1.211-8.095c0.621-2.334,1.263-4.747,1.212-7.137   c-0.075-3.576-1.907-8.008-3.679-12.294c-0.681-1.646-1.324-3.202-1.872-4.711c-2.199-6.063-0.611-9.816,2.064-14.848   c1.05-1.977,2.627-3.979,4.295-6.1c2.792-3.548,5.681-7.219,6.059-10.836c0.031-0.301,0.295-0.526,0.604-0.489   c0.302,0.031,0.521,0.301,0.489,0.604c-0.411,3.934-3.399,7.73-6.288,11.402c-1.638,2.081-3.184,4.047-4.188,5.936   c-2.962,5.57-3.893,8.742-2.001,13.957c0.539,1.487,1.177,3.032,1.855,4.667c1.811,4.379,3.684,8.91,3.762,12.691   c0.054,2.546-0.609,5.036-1.25,7.442c-0.704,2.646-1.368,5.146-1.177,7.731c0.25,3.366,1.932,6.105,3.3,7.809   c1.45,1.808,3.201,3.318,5.201,4.487c0.262,0.153,0.35,0.489,0.198,0.752C159.34,123.905,159.156,124.002,158.967,124.002z"/>
</g>
<g>
	<path fill="#23286B" d="M149.078,53.365c-0.039,0-0.078-0.004-0.117-0.013c-2.052-0.446-3.141-2.911-3.02-4.483   c0.023-0.301,0.28-0.553,0.59-0.505c0.302,0.023,0.528,0.288,0.506,0.59c-0.074,0.953,0.621,2.99,2.159,3.324   c0.296,0.064,0.484,0.357,0.42,0.654C149.558,53.19,149.33,53.365,149.078,53.365z"/>
</g>
<path fill="#FFBEB6" d="M124.318,200.218c-1.149-0.99-1.992-2.281-3.034-3.383c-1.409-1.492-3.158-2.612-4.887-3.716  c-0.728-0.465-1.48-0.941-2.327-1.101c-0.431-0.082-0.92-0.063-1.247,0.23c-0.734,0.662-0.012,1.843,0.699,2.53  c2.008,1.937,4.015,3.877,6.024,5.814c1.256,1.214,2.53,2.446,3.418,3.951c0.637,1.08,1.06,2.272,1.672,3.368  c0.464,0.828,1.07,1.627,1.929,2.03c0.859,0.404,2.013,0.297,2.597-0.451c-1.22-2.126-0.685-5.006-2.157-6.968  C126.292,201.574,125.215,200.989,124.318,200.218z"/>
<linearGradient id="SVGID_3_-i5" gradientUnits="userSpaceOnUse" x1="1225.4458" y1="1295.4288" x2="1706.2035" y2="1295.4288" gradientTransform="matrix(0.1705 0 0 0.1705 -163.2512 -129.3091)">
	<stop offset="0" style="stop-color:#A1C3FC"/>
	<stop offset="1" style="stop-color:#81AEF2"/>
</linearGradient>
<path fill="url(#SVGID_3_-i5)" d="M138.514,94.669c-18.123-3.563-46.946-7.915-53.929-9.826c-2.692-0.737-5.064-1.386-7.198-1.924  c-0.774-1.225-8.078-5.272-8.704-5.852c-3.858-3.963-6.898-6.017-10.632-10.037c-4.663,3.264-8.859,9.325-16.318,16.786  c3.852,3.83,13.645,5.289,17.869,8.704c1.966,1.589,4.118,3.172,6.529,3.764c1.26,0.689,2.643,1.36,4.18,1.994  c5.442,2.243,40.324,12.844,47.002,14.576c6.678,1.732,17.795,4.963,26.404,2.101c1.835-0.611,5.187-2.617,5.303-4.181  C149.353,106.329,146.393,96.219,138.514,94.669z"/>
<path id="texture-2_3_-i5" fill="#FFFFFF" d="M88.445,238.082c0.078-0.147,0.043-0.259-0.104-0.337  c-0.147-0.078-0.259-0.043-0.337,0.104c-0.078,0.147-0.043,0.259,0.104,0.337l0,0C88.256,238.264,88.333,238.116,88.445,238.082  L88.445,238.082z M87.86,213.165c0.112-0.035,0.19-0.183,0.155-0.294l0,0c-0.035-0.112-0.183-0.19-0.294-0.155l0,0  c-0.112,0.035-0.19,0.183-0.155,0.294C87.523,213.269,87.783,213.312,87.86,213.165L87.86,213.165L87.86,213.165z M87.333,225.755  c0.112-0.035,0.224-0.069,0.302-0.217c-0.035-0.112-0.069-0.224-0.216-0.302c-0.112,0.035-0.224,0.069-0.302,0.217  C87.073,225.712,87.22,225.79,87.333,225.755z M118.04,235.922c0.259,0.043,0.449-0.14,0.492-0.398  c0.043-0.259-0.14-0.449-0.398-0.492l0,0c-0.259-0.043-0.449,0.14-0.492,0.398C117.486,235.725,117.816,235.993,118.04,235.922  L118.04,235.922z M106.825,235.461c0.259,0.043,0.449-0.14,0.492-0.398c0.043-0.259-0.14-0.449-0.398-0.492  c-0.259-0.043-0.449,0.14-0.492,0.398l0,0C106.383,235.23,106.566,235.42,106.825,235.461z M95.575,234.887  c0.259,0.043,0.449-0.14,0.492-0.398l0,0c0.043-0.259-0.14-0.449-0.398-0.492l0,0c-0.259-0.043-0.449,0.14-0.492,0.398  C95.135,234.656,95.315,234.845,95.575,234.887z M107.508,257.518c0.043-0.259-0.027-0.483-0.208-0.673  c-0.259-0.043-0.483,0.027-0.673,0.208c-0.043,0.259,0.027,0.483,0.174,0.562C107.129,257.882,107.354,257.812,107.508,257.518  L107.508,257.518z M97.313,252.804c0.043-0.259-0.027-0.483-0.208-0.673c-0.259-0.043-0.483,0.027-0.673,0.208  c-0.043,0.259,0.027,0.483,0.174,0.562C96.898,253.056,97.235,252.951,97.313,252.804L97.313,252.804z M109.678,214.893  c0.224-0.069,0.379-0.364,0.309-0.587c-0.069-0.224-0.364-0.379-0.587-0.309l0,0c-0.224,0.069-0.379,0.364-0.309,0.587l0,0  C109.159,214.807,109.453,214.962,109.678,214.893z M99.042,218.682c0.224-0.069,0.379-0.364,0.309-0.587  c-0.069-0.224-0.364-0.379-0.587-0.309c-0.224,0.069-0.379,0.364-0.309,0.587l0,0C98.523,218.596,98.817,218.751,99.042,218.682  L99.042,218.682z M88.517,222.435c0.224-0.069,0.379-0.364,0.309-0.587l0,0c-0.069-0.224-0.364-0.379-0.587-0.309l0,0  c-0.224,0.069-0.379,0.364-0.309,0.587C88.034,222.461,88.294,222.504,88.517,222.435L88.517,222.435z M102.544,267.3  c0.078-0.147,0.086-0.519-0.174-0.562c-0.147-0.078-0.519-0.086-0.562,0.174c-0.078,0.147-0.086,0.519,0.174,0.562l0,0  C102.164,267.664,102.388,267.594,102.544,267.3z M108.257,225.791c0.224-0.069,0.415-0.251,0.345-0.476s-0.217-0.302-0.476-0.345  l0,0c-0.224,0.069-0.415,0.251-0.345,0.476l0,0C107.851,225.67,108.032,225.86,108.257,225.791L108.257,225.791z M98.577,228.298  c0.224-0.069,0.415-0.251,0.345-0.476c-0.069-0.224-0.216-0.302-0.476-0.345l0,0c-0.224,0.069-0.415,0.251-0.345,0.476l0,0  C98.171,228.178,98.353,228.368,98.577,228.298L98.577,228.298z M88.862,230.694c0.224-0.069,0.415-0.251,0.345-0.476l0,0  c-0.069-0.224-0.216-0.302-0.476-0.345l0,0c-0.224,0.069-0.415,0.251-0.345,0.476l0,0C88.491,230.686,88.639,230.763,88.862,230.694  L88.862,230.694z M104.231,247.338c0.259,0.043,0.449-0.14,0.492-0.398c0.043-0.259-0.14-0.449-0.398-0.492  c-0.259-0.043-0.449,0.14-0.492,0.398C103.79,247.106,104.006,247.408,104.231,247.338L104.231,247.338z M94.336,245.976  c0.259,0.043,0.449-0.14,0.526-0.287l0,0c0.043-0.259-0.14-0.449-0.398-0.492c-0.259-0.043-0.449,0.14-0.492,0.398  C93.895,245.743,94.077,245.933,94.336,245.976L94.336,245.976z M95.396,210.091c0.19-0.183,0.267-0.329,0.086-0.519l0,0  c-0.183-0.19-0.441-0.233-0.519-0.086l0,0c-0.19,0.183-0.233,0.441-0.05,0.63C94.911,210.118,95.17,210.161,95.396,210.091  L95.396,210.091L95.396,210.091z M87.391,216.017c0.19-0.183,0.233-0.441,0.05-0.63c-0.183-0.189-0.441-0.233-0.63-0.05  c-0.19,0.183-0.233,0.441-0.086,0.519C86.941,216.156,87.201,216.199,87.391,216.017C87.277,216.052,87.391,216.017,87.391,216.017  L87.391,216.017z M113.136,267.34c0.259,0.043,0.449-0.14,0.492-0.398c0.043-0.259-0.14-0.449-0.398-0.492  c-0.259-0.043-0.449,0.14-0.492,0.398C112.694,267.107,112.876,267.297,113.136,267.34L113.136,267.34z M101.72,265.834  c0.259,0.043,0.449-0.14,0.492-0.398c0.043-0.259-0.14-0.449-0.398-0.492c-0.259-0.043-0.449,0.14-0.492,0.398  C101.244,265.488,101.46,265.791,101.72,265.834L101.72,265.834z M101.093,220.137c0.19-0.183,0.233-0.441,0.05-0.63  c-0.183-0.19-0.441-0.233-0.63-0.05c-0.19,0.183-0.233,0.441-0.05,0.63C100.531,220.311,100.903,220.319,101.093,220.137  L101.093,220.137z M91.836,227.188c0.19-0.183,0.233-0.441,0.05-0.63c-0.183-0.19-0.441-0.233-0.63-0.05  c-0.19,0.183-0.233,0.441-0.05,0.63C91.352,227.216,91.646,227.371,91.836,227.188L91.836,227.188z M106.739,244.715  c0.224-0.069,0.379-0.364,0.309-0.587c-0.069-0.224-0.364-0.379-0.587-0.309c-0.224,0.069-0.379,0.364-0.309,0.587l0,0  C106.221,244.631,106.515,244.785,106.739,244.715L106.739,244.715L106.739,244.715z M95.601,247.675  c0.224-0.069,0.379-0.364,0.309-0.587l0,0c-0.069-0.224-0.364-0.379-0.587-0.309l0,0c-0.224,0.069-0.379,0.364-0.309,0.587  C95.082,247.589,95.264,247.78,95.601,247.675L95.601,247.675z M110.607,251.637c0.224-0.069,0.379-0.364,0.309-0.587  c-0.069-0.224-0.364-0.379-0.587-0.309c-0.224,0.069-0.415,0.251-0.309,0.587C110.089,251.552,110.383,251.707,110.607,251.637  L110.607,251.637z M99.328,254.148c0.224-0.069,0.379-0.364,0.309-0.587c-0.069-0.224-0.251-0.415-0.587-0.309  c-0.224,0.069-0.379,0.364-0.422,0.623C98.81,254.062,99.104,254.217,99.328,254.148L99.328,254.148z M95.959,232.555  c0.19-0.183,0.233-0.441,0.162-0.666c-0.183-0.19-0.441-0.233-0.666-0.162c-0.19,0.183-0.233,0.441-0.162,0.666l0,0  C95.362,232.616,95.734,232.623,95.959,232.555L95.959,232.555L95.959,232.555z"/>
<g>
	<path fill="#23286B" d="M138.459,108.788c-0.131,0-0.261-0.046-0.366-0.14c-0.227-0.203-0.245-0.549-0.043-0.775   c3.313-3.705,5.607-7.214,7.013-10.726c1.695-4.233,2.092-8.66,1.121-12.465c-0.324-1.267-0.812-2.532-1.284-3.754   c-0.707-1.828-1.436-3.72-1.671-5.727c-0.728-6.234,3.396-11.887,7.07-16.115l0.974-1.115c3.558-4.058,7.237-8.255,8.086-13.434   c0.048-0.299,0.329-0.51,0.631-0.452c0.299,0.048,0.502,0.332,0.453,0.63c-0.9,5.489-4.684,9.806-8.344,13.98l-0.971,1.112   c-3.525,4.057-7.486,9.459-6.807,15.267c0.219,1.869,0.892,3.613,1.603,5.459c0.483,1.253,0.983,2.547,1.324,3.878   c1.029,4.029,0.616,8.698-1.165,13.145c-1.454,3.634-3.815,7.248-7.215,11.05C138.759,108.726,138.609,108.788,138.459,108.788z"/>
</g>

        </g>
    </g>
</g>

<!-- ITEM 6 -->
<g>
    <defs>
        
        <clipPath id="clip-path-id-viewbox-item-6">
            <rect x="0.0" y="0.0" width="100.0" height="100.0"/>
        </clipPath>
    </defs>
    <g transform="translate(1016.0 751.0) rotate(0.0 57.0 57.0) scale(1.14 1.14)">
        <g clip-path="url(#clip-path-id-viewbox-item-6)" transform="translate(-0.0 -0.0)">

<path fill="#ffffff" d="M99.443,29.174c-10.178-0.475-19.824-0.548-28.647,0c0.539-9.776,0.566-19.336,0-28.647  c-14.268-0.691-28.169-0.712-41.669,0c-0.629,9.256-0.639,18.801,0,28.647c-8.853-0.745-18.492-0.649-28.647,0  c-0.631,14.038-0.645,27.931,0,41.669c10.102,0.807,19.725,0.914,28.647,0c-0.49,8.587-0.407,18.3,0,28.647  c13.691,0.68,27.581,0.679,41.669,0c0.392-9.244,0.342-18.833,0-28.647c9.039,0.697,18.62,0.653,28.647,0  C100.15,56.333,100.22,42.382,99.443,29.174z"/>

        </g>
    </g>
</g>

              </svg>